%TF.GenerationSoftware,KiCad,Pcbnew,(5.1.9-13-g2d491f9cbd)-1*%
%TF.CreationDate,2021-02-20T16:02:13+01:00*%
%TF.ProjectId,Ant_Amp,416e745f-416d-4702-9e6b-696361645f70,rev?*%
%TF.SameCoordinates,Original*%
%TF.FileFunction,Copper,L1,Top*%
%TF.FilePolarity,Positive*%
%FSLAX46Y46*%
G04 Gerber Fmt 4.6, Leading zero omitted, Abs format (unit mm)*
G04 Created by KiCad (PCBNEW (5.1.9-13-g2d491f9cbd)-1) date 2021-02-20 16:02:13*
%MOMM*%
%LPD*%
G01*
G04 APERTURE LIST*
%TA.AperFunction,EtchedComponent*%
%ADD10C,0.100000*%
%TD*%
%TA.AperFunction,SMDPad,CuDef*%
%ADD11R,1.400000X0.900000*%
%TD*%
%TA.AperFunction,ComponentPad*%
%ADD12C,2.500000*%
%TD*%
%TA.AperFunction,SMDPad,CuDef*%
%ADD13C,2.000000*%
%TD*%
%TA.AperFunction,SMDPad,CuDef*%
%ADD14R,1.800000X2.500000*%
%TD*%
%TA.AperFunction,ViaPad*%
%ADD15C,0.800000*%
%TD*%
%TA.AperFunction,Conductor*%
%ADD16C,0.500000*%
%TD*%
%TA.AperFunction,Conductor*%
%ADD17C,0.250000*%
%TD*%
%TA.AperFunction,Conductor*%
%ADD18C,0.254000*%
%TD*%
%TA.AperFunction,Conductor*%
%ADD19C,0.100000*%
%TD*%
G04 APERTURE END LIST*
D10*
%TO.C,H2*%
G36*
X140564020Y-106821820D02*
G01*
X140564020Y-102821820D01*
X142564020Y-102821820D01*
X142564020Y-106821820D01*
X140564020Y-106821820D01*
G37*
%TO.C,H1*%
G36*
X134164020Y-106821820D02*
G01*
X134164020Y-102821820D01*
X136164020Y-102821820D01*
X136164020Y-106821820D01*
X134164020Y-106821820D01*
G37*
%TD*%
D11*
%TO.P,CT3,2*%
%TO.N,GND*%
X123964020Y-120371820D03*
%TO.P,CT3,1*%
%TO.N,Net-(CT3-Pad1)*%
X123964020Y-116471820D03*
%TD*%
%TO.P,CT2,2*%
%TO.N,GND*%
X110864020Y-120471820D03*
%TO.P,CT2,1*%
%TO.N,Net-(CT2-Pad1)*%
X110864020Y-116571820D03*
%TD*%
%TO.P,CT1,2*%
%TO.N,GND*%
X106864020Y-120471820D03*
%TO.P,CT1,1*%
%TO.N,Net-(CT1-Pad1)*%
X106864020Y-116571820D03*
%TD*%
%TO.P,R7,2*%
%TO.N,Net-(D1-Pad1)*%
%TA.AperFunction,SMDPad,CuDef*%
G36*
G01*
X140014020Y-112146821D02*
X140014020Y-109296819D01*
G75*
G02*
X140264019Y-109046820I249999J0D01*
G01*
X140989021Y-109046820D01*
G75*
G02*
X141239020Y-109296819I0J-249999D01*
G01*
X141239020Y-112146821D01*
G75*
G02*
X140989021Y-112396820I-249999J0D01*
G01*
X140264019Y-112396820D01*
G75*
G02*
X140014020Y-112146821I0J249999D01*
G01*
G37*
%TD.AperFunction*%
%TO.P,R7,1*%
%TO.N,+12V*%
%TA.AperFunction,SMDPad,CuDef*%
G36*
G01*
X134089020Y-112146821D02*
X134089020Y-109296819D01*
G75*
G02*
X134339019Y-109046820I249999J0D01*
G01*
X135064021Y-109046820D01*
G75*
G02*
X135314020Y-109296819I0J-249999D01*
G01*
X135314020Y-112146821D01*
G75*
G02*
X135064021Y-112396820I-249999J0D01*
G01*
X134339019Y-112396820D01*
G75*
G02*
X134089020Y-112146821I0J249999D01*
G01*
G37*
%TD.AperFunction*%
%TD*%
%TO.P,C6,2*%
%TO.N,GND*%
%TA.AperFunction,SMDPad,CuDef*%
G36*
G01*
X118564020Y-105791820D02*
X118564020Y-105451820D01*
G75*
G02*
X118704020Y-105311820I140000J0D01*
G01*
X118984020Y-105311820D01*
G75*
G02*
X119124020Y-105451820I0J-140000D01*
G01*
X119124020Y-105791820D01*
G75*
G02*
X118984020Y-105931820I-140000J0D01*
G01*
X118704020Y-105931820D01*
G75*
G02*
X118564020Y-105791820I0J140000D01*
G01*
G37*
%TD.AperFunction*%
%TO.P,C6,1*%
%TO.N,Net-(C4-Pad2)*%
%TA.AperFunction,SMDPad,CuDef*%
G36*
G01*
X117604020Y-105791820D02*
X117604020Y-105451820D01*
G75*
G02*
X117744020Y-105311820I140000J0D01*
G01*
X118024020Y-105311820D01*
G75*
G02*
X118164020Y-105451820I0J-140000D01*
G01*
X118164020Y-105791820D01*
G75*
G02*
X118024020Y-105931820I-140000J0D01*
G01*
X117744020Y-105931820D01*
G75*
G02*
X117604020Y-105791820I0J140000D01*
G01*
G37*
%TD.AperFunction*%
%TD*%
%TO.P,C4,2*%
%TO.N,Net-(C4-Pad2)*%
%TA.AperFunction,SMDPad,CuDef*%
G36*
G01*
X139264020Y-115691820D02*
X139264020Y-115351820D01*
G75*
G02*
X139404020Y-115211820I140000J0D01*
G01*
X139684020Y-115211820D01*
G75*
G02*
X139824020Y-115351820I0J-140000D01*
G01*
X139824020Y-115691820D01*
G75*
G02*
X139684020Y-115831820I-140000J0D01*
G01*
X139404020Y-115831820D01*
G75*
G02*
X139264020Y-115691820I0J140000D01*
G01*
G37*
%TD.AperFunction*%
%TO.P,C4,1*%
%TO.N,GND*%
%TA.AperFunction,SMDPad,CuDef*%
G36*
G01*
X138304020Y-115691820D02*
X138304020Y-115351820D01*
G75*
G02*
X138444020Y-115211820I140000J0D01*
G01*
X138724020Y-115211820D01*
G75*
G02*
X138864020Y-115351820I0J-140000D01*
G01*
X138864020Y-115691820D01*
G75*
G02*
X138724020Y-115831820I-140000J0D01*
G01*
X138444020Y-115831820D01*
G75*
G02*
X138304020Y-115691820I0J140000D01*
G01*
G37*
%TD.AperFunction*%
%TD*%
%TO.P,C3,2*%
%TO.N,Net-(C3-Pad2)*%
%TA.AperFunction,SMDPad,CuDef*%
G36*
G01*
X133364020Y-115351820D02*
X133364020Y-115691820D01*
G75*
G02*
X133224020Y-115831820I-140000J0D01*
G01*
X132944020Y-115831820D01*
G75*
G02*
X132804020Y-115691820I0J140000D01*
G01*
X132804020Y-115351820D01*
G75*
G02*
X132944020Y-115211820I140000J0D01*
G01*
X133224020Y-115211820D01*
G75*
G02*
X133364020Y-115351820I0J-140000D01*
G01*
G37*
%TD.AperFunction*%
%TO.P,C3,1*%
%TO.N,Net-(C3-Pad1)*%
%TA.AperFunction,SMDPad,CuDef*%
G36*
G01*
X134324020Y-115351820D02*
X134324020Y-115691820D01*
G75*
G02*
X134184020Y-115831820I-140000J0D01*
G01*
X133904020Y-115831820D01*
G75*
G02*
X133764020Y-115691820I0J140000D01*
G01*
X133764020Y-115351820D01*
G75*
G02*
X133904020Y-115211820I140000J0D01*
G01*
X134184020Y-115211820D01*
G75*
G02*
X134324020Y-115351820I0J-140000D01*
G01*
G37*
%TD.AperFunction*%
%TD*%
%TO.P,C2,2*%
%TO.N,GND*%
%TA.AperFunction,SMDPad,CuDef*%
G36*
G01*
X115864020Y-120051820D02*
X115864020Y-120391820D01*
G75*
G02*
X115724020Y-120531820I-140000J0D01*
G01*
X115444020Y-120531820D01*
G75*
G02*
X115304020Y-120391820I0J140000D01*
G01*
X115304020Y-120051820D01*
G75*
G02*
X115444020Y-119911820I140000J0D01*
G01*
X115724020Y-119911820D01*
G75*
G02*
X115864020Y-120051820I0J-140000D01*
G01*
G37*
%TD.AperFunction*%
%TO.P,C2,1*%
%TO.N,Net-(C2-Pad1)*%
%TA.AperFunction,SMDPad,CuDef*%
G36*
G01*
X116824020Y-120051820D02*
X116824020Y-120391820D01*
G75*
G02*
X116684020Y-120531820I-140000J0D01*
G01*
X116404020Y-120531820D01*
G75*
G02*
X116264020Y-120391820I0J140000D01*
G01*
X116264020Y-120051820D01*
G75*
G02*
X116404020Y-119911820I140000J0D01*
G01*
X116684020Y-119911820D01*
G75*
G02*
X116824020Y-120051820I0J-140000D01*
G01*
G37*
%TD.AperFunction*%
%TD*%
%TO.P,C1,2*%
%TO.N,GND*%
%TA.AperFunction,SMDPad,CuDef*%
G36*
G01*
X115864020Y-108751820D02*
X115864020Y-109091820D01*
G75*
G02*
X115724020Y-109231820I-140000J0D01*
G01*
X115444020Y-109231820D01*
G75*
G02*
X115304020Y-109091820I0J140000D01*
G01*
X115304020Y-108751820D01*
G75*
G02*
X115444020Y-108611820I140000J0D01*
G01*
X115724020Y-108611820D01*
G75*
G02*
X115864020Y-108751820I0J-140000D01*
G01*
G37*
%TD.AperFunction*%
%TO.P,C1,1*%
%TO.N,Net-(C1-Pad1)*%
%TA.AperFunction,SMDPad,CuDef*%
G36*
G01*
X116824020Y-108751820D02*
X116824020Y-109091820D01*
G75*
G02*
X116684020Y-109231820I-140000J0D01*
G01*
X116404020Y-109231820D01*
G75*
G02*
X116264020Y-109091820I0J140000D01*
G01*
X116264020Y-108751820D01*
G75*
G02*
X116404020Y-108611820I140000J0D01*
G01*
X116684020Y-108611820D01*
G75*
G02*
X116824020Y-108751820I0J-140000D01*
G01*
G37*
%TD.AperFunction*%
%TD*%
D12*
%TO.P,L1,3*%
%TO.N,Net-(AE1-Pad1)*%
X95414020Y-110921820D03*
%TO.P,L1,1*%
%TO.N,Net-(CT1-Pad1)*%
X100264020Y-113921820D03*
%TO.P,L1,2*%
%TO.N,GND*%
X100264020Y-102921820D03*
%TD*%
D13*
%TO.P,H2,2*%
%TO.N,N/C*%
X141564020Y-102821820D03*
%TO.P,H2,1*%
%TO.N,GND*%
X141564020Y-106821820D03*
%TD*%
%TO.P,H1,2*%
%TO.N,N/C*%
X135164020Y-102821820D03*
%TO.P,H1,1*%
%TO.N,+12V*%
X135164020Y-106821820D03*
%TD*%
%TO.P,FB1,2*%
%TO.N,Net-(C4-Pad2)*%
%TA.AperFunction,SMDPad,CuDef*%
G36*
G01*
X141889020Y-111046820D02*
X142439020Y-111046820D01*
G75*
G02*
X142639020Y-111246820I0J-200000D01*
G01*
X142639020Y-111646820D01*
G75*
G02*
X142439020Y-111846820I-200000J0D01*
G01*
X141889020Y-111846820D01*
G75*
G02*
X141689020Y-111646820I0J200000D01*
G01*
X141689020Y-111246820D01*
G75*
G02*
X141889020Y-111046820I200000J0D01*
G01*
G37*
%TD.AperFunction*%
%TO.P,FB1,1*%
%TO.N,Net-(D1-Pad1)*%
%TA.AperFunction,SMDPad,CuDef*%
G36*
G01*
X141889020Y-109396820D02*
X142439020Y-109396820D01*
G75*
G02*
X142639020Y-109596820I0J-200000D01*
G01*
X142639020Y-109996820D01*
G75*
G02*
X142439020Y-110196820I-200000J0D01*
G01*
X141889020Y-110196820D01*
G75*
G02*
X141689020Y-109996820I0J200000D01*
G01*
X141689020Y-109596820D01*
G75*
G02*
X141889020Y-109396820I200000J0D01*
G01*
G37*
%TD.AperFunction*%
%TD*%
D12*
%TO.P,J1,2*%
%TO.N,GND*%
X130629620Y-111274720D03*
X130616920Y-102994320D03*
X122285720Y-103007020D03*
X122323820Y-111274720D03*
%TO.P,J1,1*%
%TO.N,Net-(J1-Pad1)*%
X126464020Y-107121820D03*
%TD*%
D14*
%TO.P,D1,2*%
%TO.N,GND*%
X138364020Y-103121820D03*
%TO.P,D1,1*%
%TO.N,Net-(D1-Pad1)*%
X138364020Y-107121820D03*
%TD*%
%TO.P,C5,2*%
%TO.N,GND*%
%TA.AperFunction,SMDPad,CuDef*%
G36*
G01*
X140714019Y-118221820D02*
X142014021Y-118221820D01*
G75*
G02*
X142264020Y-118471819I0J-249999D01*
G01*
X142264020Y-119121821D01*
G75*
G02*
X142014021Y-119371820I-249999J0D01*
G01*
X140714019Y-119371820D01*
G75*
G02*
X140464020Y-119121821I0J249999D01*
G01*
X140464020Y-118471819D01*
G75*
G02*
X140714019Y-118221820I249999J0D01*
G01*
G37*
%TD.AperFunction*%
%TO.P,C5,1*%
%TO.N,Net-(C4-Pad2)*%
%TA.AperFunction,SMDPad,CuDef*%
G36*
G01*
X140714019Y-115271820D02*
X142014021Y-115271820D01*
G75*
G02*
X142264020Y-115521819I0J-249999D01*
G01*
X142264020Y-116171821D01*
G75*
G02*
X142014021Y-116421820I-249999J0D01*
G01*
X140714019Y-116421820D01*
G75*
G02*
X140464020Y-116171821I0J249999D01*
G01*
X140464020Y-115521819D01*
G75*
G02*
X140714019Y-115271820I249999J0D01*
G01*
G37*
%TD.AperFunction*%
%TD*%
D12*
%TO.P,AE1,2*%
%TO.N,GND*%
X103616920Y-114656220D03*
X95336520Y-114668920D03*
X95349220Y-123000120D03*
X103616920Y-122962020D03*
%TO.P,AE1,1*%
%TO.N,Net-(AE1-Pad1)*%
X99464020Y-118821820D03*
%TD*%
%TO.P,R6,2*%
%TO.N,GND*%
%TA.AperFunction,SMDPad,CuDef*%
G36*
G01*
X124539020Y-112546820D02*
X124539020Y-113096820D01*
G75*
G02*
X124339020Y-113296820I-200000J0D01*
G01*
X123939020Y-113296820D01*
G75*
G02*
X123739020Y-113096820I0J200000D01*
G01*
X123739020Y-112546820D01*
G75*
G02*
X123939020Y-112346820I200000J0D01*
G01*
X124339020Y-112346820D01*
G75*
G02*
X124539020Y-112546820I0J-200000D01*
G01*
G37*
%TD.AperFunction*%
%TO.P,R6,1*%
%TO.N,Net-(J1-Pad1)*%
%TA.AperFunction,SMDPad,CuDef*%
G36*
G01*
X126189020Y-112546820D02*
X126189020Y-113096820D01*
G75*
G02*
X125989020Y-113296820I-200000J0D01*
G01*
X125589020Y-113296820D01*
G75*
G02*
X125389020Y-113096820I0J200000D01*
G01*
X125389020Y-112546820D01*
G75*
G02*
X125589020Y-112346820I200000J0D01*
G01*
X125989020Y-112346820D01*
G75*
G02*
X126189020Y-112546820I0J-200000D01*
G01*
G37*
%TD.AperFunction*%
%TD*%
%TO.P,R5,2*%
%TO.N,Net-(C3-Pad1)*%
%TA.AperFunction,SMDPad,CuDef*%
G36*
G01*
X128489020Y-113096820D02*
X128489020Y-112546820D01*
G75*
G02*
X128689020Y-112346820I200000J0D01*
G01*
X129089020Y-112346820D01*
G75*
G02*
X129289020Y-112546820I0J-200000D01*
G01*
X129289020Y-113096820D01*
G75*
G02*
X129089020Y-113296820I-200000J0D01*
G01*
X128689020Y-113296820D01*
G75*
G02*
X128489020Y-113096820I0J200000D01*
G01*
G37*
%TD.AperFunction*%
%TO.P,R5,1*%
%TO.N,Net-(J1-Pad1)*%
%TA.AperFunction,SMDPad,CuDef*%
G36*
G01*
X126839020Y-113096820D02*
X126839020Y-112546820D01*
G75*
G02*
X127039020Y-112346820I200000J0D01*
G01*
X127439020Y-112346820D01*
G75*
G02*
X127639020Y-112546820I0J-200000D01*
G01*
X127639020Y-113096820D01*
G75*
G02*
X127439020Y-113296820I-200000J0D01*
G01*
X127039020Y-113296820D01*
G75*
G02*
X126839020Y-113096820I0J200000D01*
G01*
G37*
%TD.AperFunction*%
%TD*%
%TO.P,R4,2*%
%TO.N,GND*%
%TA.AperFunction,SMDPad,CuDef*%
G36*
G01*
X136789020Y-116096820D02*
X136789020Y-115546820D01*
G75*
G02*
X136989020Y-115346820I200000J0D01*
G01*
X137389020Y-115346820D01*
G75*
G02*
X137589020Y-115546820I0J-200000D01*
G01*
X137589020Y-116096820D01*
G75*
G02*
X137389020Y-116296820I-200000J0D01*
G01*
X136989020Y-116296820D01*
G75*
G02*
X136789020Y-116096820I0J200000D01*
G01*
G37*
%TD.AperFunction*%
%TO.P,R4,1*%
%TO.N,Net-(C3-Pad1)*%
%TA.AperFunction,SMDPad,CuDef*%
G36*
G01*
X135139020Y-116096820D02*
X135139020Y-115546820D01*
G75*
G02*
X135339020Y-115346820I200000J0D01*
G01*
X135739020Y-115346820D01*
G75*
G02*
X135939020Y-115546820I0J-200000D01*
G01*
X135939020Y-116096820D01*
G75*
G02*
X135739020Y-116296820I-200000J0D01*
G01*
X135339020Y-116296820D01*
G75*
G02*
X135139020Y-116096820I0J200000D01*
G01*
G37*
%TD.AperFunction*%
%TD*%
%TO.P,R3,2*%
%TO.N,GND*%
%TA.AperFunction,SMDPad,CuDef*%
G36*
G01*
X115989020Y-122746820D02*
X116539020Y-122746820D01*
G75*
G02*
X116739020Y-122946820I0J-200000D01*
G01*
X116739020Y-123346820D01*
G75*
G02*
X116539020Y-123546820I-200000J0D01*
G01*
X115989020Y-123546820D01*
G75*
G02*
X115789020Y-123346820I0J200000D01*
G01*
X115789020Y-122946820D01*
G75*
G02*
X115989020Y-122746820I200000J0D01*
G01*
G37*
%TD.AperFunction*%
%TO.P,R3,1*%
%TO.N,Net-(C2-Pad1)*%
%TA.AperFunction,SMDPad,CuDef*%
G36*
G01*
X115989020Y-121096820D02*
X116539020Y-121096820D01*
G75*
G02*
X116739020Y-121296820I0J-200000D01*
G01*
X116739020Y-121696820D01*
G75*
G02*
X116539020Y-121896820I-200000J0D01*
G01*
X115989020Y-121896820D01*
G75*
G02*
X115789020Y-121696820I0J200000D01*
G01*
X115789020Y-121296820D01*
G75*
G02*
X115989020Y-121096820I200000J0D01*
G01*
G37*
%TD.AperFunction*%
%TD*%
%TO.P,R2,2*%
%TO.N,GND*%
%TA.AperFunction,SMDPad,CuDef*%
G36*
G01*
X115989020Y-107046820D02*
X116539020Y-107046820D01*
G75*
G02*
X116739020Y-107246820I0J-200000D01*
G01*
X116739020Y-107646820D01*
G75*
G02*
X116539020Y-107846820I-200000J0D01*
G01*
X115989020Y-107846820D01*
G75*
G02*
X115789020Y-107646820I0J200000D01*
G01*
X115789020Y-107246820D01*
G75*
G02*
X115989020Y-107046820I200000J0D01*
G01*
G37*
%TD.AperFunction*%
%TO.P,R2,1*%
%TO.N,Net-(C1-Pad1)*%
%TA.AperFunction,SMDPad,CuDef*%
G36*
G01*
X115989020Y-105396820D02*
X116539020Y-105396820D01*
G75*
G02*
X116739020Y-105596820I0J-200000D01*
G01*
X116739020Y-105996820D01*
G75*
G02*
X116539020Y-106196820I-200000J0D01*
G01*
X115989020Y-106196820D01*
G75*
G02*
X115789020Y-105996820I0J200000D01*
G01*
X115789020Y-105596820D01*
G75*
G02*
X115989020Y-105396820I200000J0D01*
G01*
G37*
%TD.AperFunction*%
%TD*%
%TO.P,R1,2*%
%TO.N,Net-(C4-Pad2)*%
%TA.AperFunction,SMDPad,CuDef*%
G36*
G01*
X117489020Y-104296820D02*
X117489020Y-103746820D01*
G75*
G02*
X117689020Y-103546820I200000J0D01*
G01*
X118089020Y-103546820D01*
G75*
G02*
X118289020Y-103746820I0J-200000D01*
G01*
X118289020Y-104296820D01*
G75*
G02*
X118089020Y-104496820I-200000J0D01*
G01*
X117689020Y-104496820D01*
G75*
G02*
X117489020Y-104296820I0J200000D01*
G01*
G37*
%TD.AperFunction*%
%TO.P,R1,1*%
%TO.N,Net-(C1-Pad1)*%
%TA.AperFunction,SMDPad,CuDef*%
G36*
G01*
X115839020Y-104296820D02*
X115839020Y-103746820D01*
G75*
G02*
X116039020Y-103546820I200000J0D01*
G01*
X116439020Y-103546820D01*
G75*
G02*
X116639020Y-103746820I0J-200000D01*
G01*
X116639020Y-104296820D01*
G75*
G02*
X116439020Y-104496820I-200000J0D01*
G01*
X116039020Y-104496820D01*
G75*
G02*
X115839020Y-104296820I0J200000D01*
G01*
G37*
%TD.AperFunction*%
%TD*%
%TO.P,Q1,2*%
%TO.N,Net-(CT3-Pad1)*%
%TA.AperFunction,SMDPad,CuDef*%
G36*
G01*
X129340320Y-114246820D02*
X129340320Y-114996820D01*
G75*
G02*
X128965320Y-115371820I-375000J0D01*
G01*
X122215320Y-115371820D01*
G75*
G02*
X121840320Y-114996820I0J375000D01*
G01*
X121840320Y-114246820D01*
G75*
G02*
X122215320Y-113871820I375000J0D01*
G01*
X128965320Y-113871820D01*
G75*
G02*
X129340320Y-114246820I0J-375000D01*
G01*
G37*
%TD.AperFunction*%
%TO.P,Q1,1*%
%TO.N,Net-(C2-Pad1)*%
%TA.AperFunction,SMDPad,CuDef*%
G36*
G01*
X118739020Y-122486020D02*
X117989020Y-122486020D01*
G75*
G02*
X117614020Y-122111020I0J375000D01*
G01*
X117614020Y-118461020D01*
G75*
G02*
X117989020Y-118086020I375000J0D01*
G01*
X118739020Y-118086020D01*
G75*
G02*
X119114020Y-118461020I0J-375000D01*
G01*
X119114020Y-122111020D01*
G75*
G02*
X118739020Y-122486020I-375000J0D01*
G01*
G37*
%TD.AperFunction*%
%TO.P,Q1,4*%
%TO.N,Net-(CT2-Pad1)*%
%TA.AperFunction,SMDPad,CuDef*%
G36*
G01*
X114899820Y-114246820D02*
X114899820Y-114996820D01*
G75*
G02*
X114524820Y-115371820I-375000J0D01*
G01*
X110874820Y-115371820D01*
G75*
G02*
X110499820Y-114996820I0J375000D01*
G01*
X110499820Y-114246820D01*
G75*
G02*
X110874820Y-113871820I375000J0D01*
G01*
X114524820Y-113871820D01*
G75*
G02*
X114899820Y-114246820I0J-375000D01*
G01*
G37*
%TD.AperFunction*%
%TO.P,Q1,3*%
%TO.N,Net-(C1-Pad1)*%
%TA.AperFunction,SMDPad,CuDef*%
G36*
G01*
X118739020Y-111144920D02*
X117989020Y-111144920D01*
G75*
G02*
X117614020Y-110769920I0J375000D01*
G01*
X117614020Y-107119920D01*
G75*
G02*
X117989020Y-106744920I375000J0D01*
G01*
X118739020Y-106744920D01*
G75*
G02*
X119114020Y-107119920I0J-375000D01*
G01*
X119114020Y-110769920D01*
G75*
G02*
X118739020Y-111144920I-375000J0D01*
G01*
G37*
%TD.AperFunction*%
%TD*%
%TO.P,L2,1*%
%TO.N,GND*%
X108664020Y-102921820D03*
%TO.P,L2,2*%
%TO.N,Net-(CT2-Pad1)*%
X108664020Y-113921820D03*
%TD*%
%TO.P,L3,1*%
%TO.N,Net-(CT3-Pad1)*%
X127364020Y-119921820D03*
%TO.P,L3,2*%
%TO.N,Net-(C4-Pad2)*%
X138364020Y-119921820D03*
%TO.P,L3,3*%
%TO.N,Net-(C3-Pad2)*%
X131014020Y-114721820D03*
%TD*%
D15*
%TO.N,GND*%
X101264020Y-108621820D03*
X106264020Y-108621820D03*
X96264020Y-103621820D03*
X103764020Y-103621820D03*
X96264020Y-108621820D03*
X111264020Y-108621820D03*
X111264020Y-118621820D03*
X111264020Y-123621820D03*
X106264020Y-123621820D03*
X106264020Y-118621820D03*
X103764020Y-118621820D03*
X96264020Y-118621820D03*
X98764020Y-123621820D03*
X108764020Y-106121820D03*
X108764020Y-111121820D03*
X98764020Y-106121820D03*
X98764020Y-111121820D03*
X113764020Y-111121820D03*
X113764020Y-106121820D03*
X113764020Y-118621820D03*
X113764020Y-123621820D03*
X118764020Y-123621820D03*
X123764020Y-123621820D03*
X128764020Y-123621820D03*
X133764020Y-123621820D03*
X138764020Y-123621820D03*
X141264020Y-121121820D03*
X136264020Y-121121820D03*
X131264020Y-121121820D03*
X121264020Y-121121820D03*
X133764020Y-118621820D03*
X126264020Y-116121820D03*
X121264020Y-108621820D03*
X123764020Y-106121820D03*
X126264020Y-103621820D03*
X128764020Y-106121820D03*
X131264020Y-108621820D03*
X133764020Y-108621820D03*
X133764020Y-113621820D03*
X138764020Y-113621820D03*
X141264020Y-113621820D03*
X137664020Y-110721820D03*
X138364020Y-105121820D03*
X121264020Y-118621820D03*
X123764020Y-118621820D03*
X128064020Y-111121820D03*
X129864020Y-117621820D03*
X103764020Y-111121820D03*
%TO.N,Net-(C4-Pad2)*%
X118964020Y-104021820D03*
%TD*%
D16*
%TO.N,GND*%
X141564020Y-104967822D02*
X141564020Y-106821820D01*
X139718018Y-103121820D02*
X141564020Y-104967822D01*
X138364020Y-103121820D02*
X139718018Y-103121820D01*
D17*
X123870920Y-112821820D02*
X122323820Y-111274720D01*
X124139020Y-112821820D02*
X123870920Y-112821820D01*
%TO.N,Net-(C1-Pad1)*%
X118340920Y-108921820D02*
X118364020Y-108944920D01*
X116544020Y-108921820D02*
X118340920Y-108921820D01*
X118364020Y-107896820D02*
X118364020Y-108944920D01*
X116264020Y-105796820D02*
X118364020Y-107896820D01*
X116239020Y-105771820D02*
X116264020Y-105796820D01*
X116239020Y-104021820D02*
X116239020Y-105771820D01*
D16*
%TO.N,Net-(C2-Pad1)*%
X116564020Y-120241820D02*
X116544020Y-120221820D01*
D17*
X116544020Y-121216820D02*
X116264020Y-121496820D01*
X116544020Y-120221820D02*
X116544020Y-121216820D01*
X118299820Y-120221820D02*
X118364020Y-120286020D01*
X116544020Y-120221820D02*
X118299820Y-120221820D01*
D16*
%TO.N,Net-(C4-Pad2)*%
X141039020Y-115521820D02*
X141364020Y-115846820D01*
X139544020Y-115521820D02*
X141039020Y-115521820D01*
X142164020Y-115046820D02*
X141364020Y-115846820D01*
X142164020Y-111446820D02*
X142164020Y-115046820D01*
X139544020Y-118741820D02*
X138364020Y-119921820D01*
X139544020Y-115521820D02*
X139544020Y-118741820D01*
D17*
X117889020Y-104021820D02*
X118964020Y-104021820D01*
X117889020Y-105616820D02*
X117884020Y-105621820D01*
X117889020Y-104021820D02*
X117889020Y-105616820D01*
D16*
%TO.N,Net-(CT3-Pad1)*%
X125590320Y-114395520D02*
X123964020Y-116021820D01*
X125590320Y-113921820D02*
X125590320Y-114395520D01*
X127364020Y-119421820D02*
X123964020Y-116021820D01*
D17*
%TO.N,Net-(CT2-Pad1)*%
X109364020Y-114621820D02*
X108664020Y-113921820D01*
X112699820Y-114621820D02*
X109364020Y-114621820D01*
X110864020Y-116457620D02*
X112699820Y-114621820D01*
X110864020Y-116621820D02*
X110864020Y-116457620D01*
%TO.N,Net-(C3-Pad2)*%
X133084020Y-115521820D02*
X133064020Y-115521820D01*
X132264020Y-114721820D02*
X131014020Y-114721820D01*
X133064020Y-115521820D02*
X132264020Y-114721820D01*
%TO.N,Net-(CT1-Pad1)*%
X102964020Y-116621820D02*
X100264020Y-113921820D01*
X106864020Y-116621820D02*
X102964020Y-116621820D01*
%TO.N,Net-(AE1-Pad1)*%
X95414020Y-110921820D02*
X97764020Y-113271820D01*
X97764020Y-113271820D02*
X97764020Y-117121820D01*
X97764020Y-117121820D02*
X99464020Y-118821820D01*
%TO.N,Net-(C3-Pad1)*%
X131379547Y-112849721D02*
X134044020Y-115514194D01*
X128916921Y-112849721D02*
X131379547Y-112849721D01*
X134044020Y-115514194D02*
X134044020Y-115521820D01*
X128889020Y-112821820D02*
X128916921Y-112849721D01*
X135239020Y-115521820D02*
X135539020Y-115821820D01*
X134044020Y-115521820D02*
X135239020Y-115521820D01*
%TO.N,Net-(J1-Pad1)*%
X126464020Y-112146820D02*
X125789020Y-112821820D01*
X126464020Y-107121820D02*
X126464020Y-112146820D01*
X126564020Y-112146820D02*
X127239020Y-112821820D01*
X126464020Y-112146820D02*
X126564020Y-112146820D01*
D16*
%TO.N,+12V*%
X135164020Y-110259320D02*
X134701520Y-110721820D01*
X135164020Y-106821820D02*
X135164020Y-110259320D01*
%TO.N,Net-(D1-Pad1)*%
X138364020Y-108459320D02*
X140626520Y-110721820D01*
X138364020Y-107121820D02*
X138364020Y-108459320D01*
X141551520Y-109796820D02*
X140626520Y-110721820D01*
X142164020Y-109796820D02*
X141551520Y-109796820D01*
%TD*%
D18*
%TO.N,GND*%
X139991852Y-102344908D02*
X139929020Y-102660787D01*
X139929020Y-106772708D01*
X139922302Y-106884415D01*
X139966059Y-107203495D01*
X140071225Y-107507908D01*
X140164206Y-107681864D01*
X140428607Y-107777628D01*
X140749415Y-107456820D01*
X141108625Y-107456820D01*
X140608212Y-107957233D01*
X140703976Y-108221634D01*
X140993591Y-108362524D01*
X141305128Y-108444204D01*
X141626615Y-108463538D01*
X141945695Y-108419781D01*
X142250108Y-108314615D01*
X142298673Y-108288657D01*
X142298828Y-108758748D01*
X141889020Y-108758748D01*
X141725520Y-108774851D01*
X141708264Y-108780086D01*
X141616982Y-108668858D01*
X141482407Y-108558415D01*
X141328871Y-108476348D01*
X141162275Y-108425812D01*
X140989021Y-108408748D01*
X140264019Y-108408748D01*
X140090765Y-108425812D01*
X139924169Y-108476348D01*
X139889998Y-108494613D01*
X139902092Y-108371820D01*
X139902092Y-105871820D01*
X139889832Y-105747338D01*
X139853522Y-105627640D01*
X139794557Y-105517326D01*
X139715205Y-105420635D01*
X139618514Y-105341283D01*
X139508200Y-105282318D01*
X139388502Y-105246008D01*
X139264020Y-105233748D01*
X137464020Y-105233748D01*
X137339538Y-105246008D01*
X137219840Y-105282318D01*
X137109526Y-105341283D01*
X137012835Y-105420635D01*
X136933483Y-105517326D01*
X136874518Y-105627640D01*
X136838208Y-105747338D01*
X136825948Y-105871820D01*
X136825948Y-108371820D01*
X136838208Y-108496302D01*
X136874518Y-108616000D01*
X136933483Y-108726314D01*
X137012835Y-108823005D01*
X137109526Y-108902357D01*
X137219840Y-108961322D01*
X137339538Y-108997632D01*
X137464020Y-109009892D01*
X137670989Y-109009892D01*
X137707488Y-109054366D01*
X137707491Y-109054369D01*
X137735204Y-109088137D01*
X137768971Y-109115849D01*
X139375948Y-110722827D01*
X139375948Y-112146821D01*
X139393012Y-112320075D01*
X139443548Y-112486671D01*
X139525615Y-112640207D01*
X139636058Y-112774782D01*
X139770633Y-112885225D01*
X139924169Y-112967292D01*
X140090765Y-113017828D01*
X140264019Y-113034892D01*
X140989021Y-113034892D01*
X141162275Y-113017828D01*
X141279020Y-112982414D01*
X141279021Y-114633748D01*
X141051296Y-114633748D01*
X141039020Y-114632539D01*
X141026744Y-114633748D01*
X140714019Y-114633748D01*
X140682828Y-114636820D01*
X139988968Y-114636820D01*
X139981775Y-114632975D01*
X139835814Y-114588698D01*
X139684020Y-114573748D01*
X139404020Y-114573748D01*
X139252226Y-114588698D01*
X139120529Y-114628648D01*
X139110898Y-114623443D01*
X138991368Y-114586585D01*
X138869770Y-114576820D01*
X138711020Y-114735570D01*
X138711020Y-115005712D01*
X138685175Y-115054065D01*
X138640898Y-115200026D01*
X138625948Y-115351820D01*
X138625948Y-115691820D01*
X138640898Y-115843614D01*
X138659020Y-115903354D01*
X138659021Y-118058570D01*
X138549676Y-118036820D01*
X138178364Y-118036820D01*
X137814186Y-118109259D01*
X137471138Y-118251354D01*
X137162402Y-118457645D01*
X136899845Y-118720202D01*
X136693554Y-119028938D01*
X136551459Y-119371986D01*
X136479020Y-119736164D01*
X136479020Y-120107476D01*
X136551459Y-120471654D01*
X136693554Y-120814702D01*
X136899845Y-121123438D01*
X137162402Y-121385995D01*
X137471138Y-121592286D01*
X137814186Y-121734381D01*
X138178364Y-121806820D01*
X138549676Y-121806820D01*
X138913854Y-121734381D01*
X139256902Y-121592286D01*
X139565638Y-121385995D01*
X139828195Y-121123438D01*
X140034486Y-120814702D01*
X140176581Y-120471654D01*
X140249020Y-120107476D01*
X140249020Y-119970174D01*
X140339538Y-119997632D01*
X140464020Y-120009892D01*
X141078270Y-120006820D01*
X141237020Y-119848070D01*
X141237020Y-118923820D01*
X141217020Y-118923820D01*
X141217020Y-118669820D01*
X141237020Y-118669820D01*
X141237020Y-117745570D01*
X141078270Y-117586820D01*
X140464020Y-117583748D01*
X140429020Y-117587195D01*
X140429020Y-117008931D01*
X140540765Y-117042828D01*
X140714019Y-117059892D01*
X142014021Y-117059892D01*
X142187275Y-117042828D01*
X142301563Y-117008159D01*
X142301755Y-117587464D01*
X142264020Y-117583748D01*
X141649770Y-117586820D01*
X141491020Y-117745570D01*
X141491020Y-118669820D01*
X141511020Y-118669820D01*
X141511020Y-118923820D01*
X141491020Y-118923820D01*
X141491020Y-119848070D01*
X141649770Y-120006820D01*
X142264020Y-120009892D01*
X142302557Y-120006097D01*
X142303801Y-123761889D01*
X117336569Y-123764473D01*
X117364832Y-123671302D01*
X117377092Y-123546820D01*
X117374020Y-123432570D01*
X117215270Y-123273820D01*
X116391020Y-123273820D01*
X116391020Y-123293820D01*
X116137020Y-123293820D01*
X116137020Y-123273820D01*
X115312770Y-123273820D01*
X115154020Y-123432570D01*
X115150948Y-123546820D01*
X115163208Y-123671302D01*
X115191539Y-123764695D01*
X105322538Y-123765717D01*
X105386353Y-123637894D01*
X105484210Y-123279708D01*
X105510309Y-122909314D01*
X105463645Y-122540945D01*
X105346014Y-122188758D01*
X105220497Y-121953934D01*
X104930525Y-121828020D01*
X103796525Y-122962020D01*
X103810668Y-122976163D01*
X103631063Y-123155768D01*
X103616920Y-123141625D01*
X103602778Y-123155768D01*
X103423173Y-122976163D01*
X103437315Y-122962020D01*
X102303315Y-121828020D01*
X102013343Y-121953934D01*
X101847487Y-122286146D01*
X101749630Y-122644332D01*
X101723531Y-123014726D01*
X101770195Y-123383095D01*
X101887826Y-123735282D01*
X101904283Y-123766071D01*
X97073433Y-123766571D01*
X97118653Y-123675994D01*
X97216510Y-123317808D01*
X97242609Y-122947414D01*
X97195945Y-122579045D01*
X97078314Y-122226858D01*
X96952797Y-121992034D01*
X96662825Y-121866120D01*
X95528825Y-123000120D01*
X95542968Y-123014263D01*
X95363363Y-123193868D01*
X95349220Y-123179725D01*
X95335078Y-123193868D01*
X95155473Y-123014263D01*
X95169615Y-123000120D01*
X95155473Y-122985978D01*
X95335078Y-122806373D01*
X95349220Y-122820515D01*
X96483220Y-121686515D01*
X96466676Y-121648415D01*
X102482920Y-121648415D01*
X103616920Y-122782415D01*
X104750920Y-121648415D01*
X104625006Y-121358443D01*
X104292794Y-121192587D01*
X103934608Y-121094730D01*
X103564214Y-121068631D01*
X103195845Y-121115295D01*
X102843658Y-121232926D01*
X102608834Y-121358443D01*
X102482920Y-121648415D01*
X96466676Y-121648415D01*
X96357306Y-121396543D01*
X96025094Y-121230687D01*
X95666908Y-121132830D01*
X95296514Y-121106731D01*
X94928145Y-121153395D01*
X94575958Y-121271026D01*
X94545099Y-121287521D01*
X94544978Y-120921820D01*
X105525948Y-120921820D01*
X105538208Y-121046302D01*
X105574518Y-121166000D01*
X105633483Y-121276314D01*
X105712835Y-121373005D01*
X105809526Y-121452357D01*
X105919840Y-121511322D01*
X106039538Y-121547632D01*
X106164020Y-121559892D01*
X106578270Y-121556820D01*
X106737020Y-121398070D01*
X106737020Y-120598820D01*
X106991020Y-120598820D01*
X106991020Y-121398070D01*
X107149770Y-121556820D01*
X107564020Y-121559892D01*
X107688502Y-121547632D01*
X107808200Y-121511322D01*
X107918514Y-121452357D01*
X108015205Y-121373005D01*
X108094557Y-121276314D01*
X108153522Y-121166000D01*
X108189832Y-121046302D01*
X108202092Y-120921820D01*
X109525948Y-120921820D01*
X109538208Y-121046302D01*
X109574518Y-121166000D01*
X109633483Y-121276314D01*
X109712835Y-121373005D01*
X109809526Y-121452357D01*
X109919840Y-121511322D01*
X110039538Y-121547632D01*
X110164020Y-121559892D01*
X110578270Y-121556820D01*
X110737020Y-121398070D01*
X110737020Y-120598820D01*
X110991020Y-120598820D01*
X110991020Y-121398070D01*
X111149770Y-121556820D01*
X111564020Y-121559892D01*
X111688502Y-121547632D01*
X111808200Y-121511322D01*
X111918514Y-121452357D01*
X112015205Y-121373005D01*
X112094557Y-121276314D01*
X112153522Y-121166000D01*
X112189832Y-121046302D01*
X112202092Y-120921820D01*
X112199020Y-120757570D01*
X112040270Y-120598820D01*
X110991020Y-120598820D01*
X110737020Y-120598820D01*
X109687770Y-120598820D01*
X109529020Y-120757570D01*
X109525948Y-120921820D01*
X108202092Y-120921820D01*
X108199020Y-120757570D01*
X108040270Y-120598820D01*
X106991020Y-120598820D01*
X106737020Y-120598820D01*
X105687770Y-120598820D01*
X105529020Y-120757570D01*
X105525948Y-120921820D01*
X94544978Y-120921820D01*
X94543472Y-116379854D01*
X94660646Y-116438353D01*
X95018832Y-116536210D01*
X95389226Y-116562309D01*
X95757595Y-116515645D01*
X96109782Y-116398014D01*
X96344606Y-116272497D01*
X96470520Y-115982525D01*
X95336520Y-114848525D01*
X95322378Y-114862668D01*
X95142773Y-114683063D01*
X95156915Y-114668920D01*
X95142773Y-114654778D01*
X95322378Y-114475173D01*
X95336520Y-114489315D01*
X96470520Y-113355315D01*
X96344606Y-113065343D01*
X96012394Y-112899487D01*
X95654208Y-112801630D01*
X95633207Y-112800150D01*
X95963854Y-112734381D01*
X96096737Y-112679339D01*
X97004020Y-113586622D01*
X97004020Y-113780425D01*
X96940097Y-113660834D01*
X96650125Y-113534920D01*
X95516125Y-114668920D01*
X96650125Y-115802920D01*
X96940097Y-115677006D01*
X97004021Y-115548966D01*
X97004021Y-117084488D01*
X97000344Y-117121820D01*
X97015018Y-117270805D01*
X97058474Y-117414066D01*
X97129046Y-117546096D01*
X97200221Y-117632822D01*
X97224020Y-117661821D01*
X97253018Y-117685619D01*
X97706501Y-118139102D01*
X97651459Y-118271986D01*
X97579020Y-118636164D01*
X97579020Y-119007476D01*
X97651459Y-119371654D01*
X97793554Y-119714702D01*
X97999845Y-120023438D01*
X98262402Y-120285995D01*
X98571138Y-120492286D01*
X98914186Y-120634381D01*
X99278364Y-120706820D01*
X99649676Y-120706820D01*
X100013854Y-120634381D01*
X100356902Y-120492286D01*
X100665638Y-120285995D01*
X100928195Y-120023438D01*
X100929276Y-120021820D01*
X105525948Y-120021820D01*
X105529020Y-120186070D01*
X105687770Y-120344820D01*
X106737020Y-120344820D01*
X106737020Y-119545570D01*
X106991020Y-119545570D01*
X106991020Y-120344820D01*
X108040270Y-120344820D01*
X108199020Y-120186070D01*
X108202092Y-120021820D01*
X109525948Y-120021820D01*
X109529020Y-120186070D01*
X109687770Y-120344820D01*
X110737020Y-120344820D01*
X110737020Y-119545570D01*
X110991020Y-119545570D01*
X110991020Y-120344820D01*
X112040270Y-120344820D01*
X112199020Y-120186070D01*
X112202092Y-120021820D01*
X112191547Y-119914743D01*
X114665955Y-119914743D01*
X114669020Y-119936070D01*
X114827770Y-120094820D01*
X115457020Y-120094820D01*
X115457020Y-119435570D01*
X115298270Y-119276820D01*
X115176672Y-119286585D01*
X115057142Y-119323443D01*
X114947099Y-119382912D01*
X114850773Y-119462707D01*
X114771864Y-119559761D01*
X114713406Y-119670344D01*
X114677645Y-119790207D01*
X114665955Y-119914743D01*
X112191547Y-119914743D01*
X112189832Y-119897338D01*
X112153522Y-119777640D01*
X112094557Y-119667326D01*
X112015205Y-119570635D01*
X111918514Y-119491283D01*
X111808200Y-119432318D01*
X111688502Y-119396008D01*
X111564020Y-119383748D01*
X111149770Y-119386820D01*
X110991020Y-119545570D01*
X110737020Y-119545570D01*
X110578270Y-119386820D01*
X110164020Y-119383748D01*
X110039538Y-119396008D01*
X109919840Y-119432318D01*
X109809526Y-119491283D01*
X109712835Y-119570635D01*
X109633483Y-119667326D01*
X109574518Y-119777640D01*
X109538208Y-119897338D01*
X109525948Y-120021820D01*
X108202092Y-120021820D01*
X108189832Y-119897338D01*
X108153522Y-119777640D01*
X108094557Y-119667326D01*
X108015205Y-119570635D01*
X107918514Y-119491283D01*
X107808200Y-119432318D01*
X107688502Y-119396008D01*
X107564020Y-119383748D01*
X107149770Y-119386820D01*
X106991020Y-119545570D01*
X106737020Y-119545570D01*
X106578270Y-119386820D01*
X106164020Y-119383748D01*
X106039538Y-119396008D01*
X105919840Y-119432318D01*
X105809526Y-119491283D01*
X105712835Y-119570635D01*
X105633483Y-119667326D01*
X105574518Y-119777640D01*
X105538208Y-119897338D01*
X105525948Y-120021820D01*
X100929276Y-120021820D01*
X101134486Y-119714702D01*
X101276581Y-119371654D01*
X101349020Y-119007476D01*
X101349020Y-118636164D01*
X101276581Y-118271986D01*
X101134486Y-117928938D01*
X100928195Y-117620202D01*
X100665638Y-117357645D01*
X100356902Y-117151354D01*
X100013854Y-117009259D01*
X99649676Y-116936820D01*
X99278364Y-116936820D01*
X98914186Y-117009259D01*
X98781302Y-117064301D01*
X98524020Y-116807019D01*
X98524020Y-114646832D01*
X98593554Y-114814702D01*
X98799845Y-115123438D01*
X99062402Y-115385995D01*
X99371138Y-115592286D01*
X99714186Y-115734381D01*
X100078364Y-115806820D01*
X100449676Y-115806820D01*
X100813854Y-115734381D01*
X100946737Y-115679339D01*
X102400221Y-117132823D01*
X102424019Y-117161821D01*
X102453017Y-117185619D01*
X102539744Y-117256794D01*
X102671773Y-117327366D01*
X102815034Y-117370823D01*
X102964020Y-117385497D01*
X103001353Y-117381820D01*
X105638002Y-117381820D01*
X105712835Y-117473005D01*
X105809526Y-117552357D01*
X105919840Y-117611322D01*
X106039538Y-117647632D01*
X106164020Y-117659892D01*
X107564020Y-117659892D01*
X107688502Y-117647632D01*
X107808200Y-117611322D01*
X107918514Y-117552357D01*
X108015205Y-117473005D01*
X108094557Y-117376314D01*
X108153522Y-117266000D01*
X108189832Y-117146302D01*
X108202092Y-117021820D01*
X108202092Y-116121820D01*
X108189832Y-115997338D01*
X108153522Y-115877640D01*
X108094557Y-115767326D01*
X108043487Y-115705096D01*
X108114186Y-115734381D01*
X108478364Y-115806820D01*
X108849676Y-115806820D01*
X109213854Y-115734381D01*
X109556902Y-115592286D01*
X109865638Y-115385995D01*
X109869813Y-115381820D01*
X109938049Y-115381820D01*
X109938864Y-115384506D01*
X110004193Y-115506730D01*
X109919840Y-115532318D01*
X109809526Y-115591283D01*
X109712835Y-115670635D01*
X109633483Y-115767326D01*
X109574518Y-115877640D01*
X109538208Y-115997338D01*
X109525948Y-116121820D01*
X109525948Y-117021820D01*
X109538208Y-117146302D01*
X109574518Y-117266000D01*
X109633483Y-117376314D01*
X109712835Y-117473005D01*
X109809526Y-117552357D01*
X109919840Y-117611322D01*
X110039538Y-117647632D01*
X110164020Y-117659892D01*
X111564020Y-117659892D01*
X111688502Y-117647632D01*
X111808200Y-117611322D01*
X111918514Y-117552357D01*
X112015205Y-117473005D01*
X112094557Y-117376314D01*
X112153522Y-117266000D01*
X112189832Y-117146302D01*
X112202092Y-117021820D01*
X112202092Y-116194349D01*
X112386550Y-116009892D01*
X114524820Y-116009892D01*
X114722461Y-115990426D01*
X114912506Y-115932776D01*
X114953790Y-115910709D01*
X115134857Y-116347843D01*
X115533635Y-116944657D01*
X116041183Y-117452205D01*
X116637997Y-117850983D01*
X117075131Y-118032050D01*
X117053064Y-118073334D01*
X116995414Y-118263379D01*
X116975948Y-118461020D01*
X116975948Y-119331207D01*
X116835814Y-119288698D01*
X116684020Y-119273748D01*
X116404020Y-119273748D01*
X116252226Y-119288698D01*
X116120529Y-119328648D01*
X116110898Y-119323443D01*
X115991368Y-119286585D01*
X115869770Y-119276820D01*
X115711020Y-119435570D01*
X115711020Y-119705712D01*
X115685175Y-119754065D01*
X115640898Y-119900026D01*
X115625948Y-120051820D01*
X115625948Y-120368820D01*
X115457020Y-120368820D01*
X115457020Y-120348820D01*
X114827770Y-120348820D01*
X114669020Y-120507570D01*
X114665955Y-120528897D01*
X114677645Y-120653433D01*
X114713406Y-120773296D01*
X114771864Y-120883879D01*
X114850773Y-120980933D01*
X114947099Y-121060728D01*
X115057142Y-121120197D01*
X115165066Y-121153476D01*
X115150948Y-121296820D01*
X115150948Y-121696820D01*
X115167051Y-121860320D01*
X115214742Y-122017536D01*
X115292189Y-122162428D01*
X115375883Y-122264410D01*
X115337835Y-122295635D01*
X115258483Y-122392326D01*
X115199518Y-122502640D01*
X115163208Y-122622338D01*
X115150948Y-122746820D01*
X115154020Y-122861070D01*
X115312770Y-123019820D01*
X116137020Y-123019820D01*
X116137020Y-122999820D01*
X116391020Y-122999820D01*
X116391020Y-123019820D01*
X117215270Y-123019820D01*
X117346845Y-122888245D01*
X117426187Y-122953359D01*
X117601334Y-123046976D01*
X117791379Y-123104626D01*
X117989020Y-123124092D01*
X118739020Y-123124092D01*
X118936661Y-123104626D01*
X119126706Y-123046976D01*
X119301853Y-122953359D01*
X119455370Y-122827370D01*
X119581359Y-122673853D01*
X119674976Y-122498706D01*
X119732626Y-122308661D01*
X119752092Y-122111020D01*
X119752092Y-120821820D01*
X122625948Y-120821820D01*
X122638208Y-120946302D01*
X122674518Y-121066000D01*
X122733483Y-121176314D01*
X122812835Y-121273005D01*
X122909526Y-121352357D01*
X123019840Y-121411322D01*
X123139538Y-121447632D01*
X123264020Y-121459892D01*
X123678270Y-121456820D01*
X123837020Y-121298070D01*
X123837020Y-120498820D01*
X124091020Y-120498820D01*
X124091020Y-121298070D01*
X124249770Y-121456820D01*
X124664020Y-121459892D01*
X124788502Y-121447632D01*
X124908200Y-121411322D01*
X125018514Y-121352357D01*
X125115205Y-121273005D01*
X125194557Y-121176314D01*
X125253522Y-121066000D01*
X125289832Y-120946302D01*
X125302092Y-120821820D01*
X125299020Y-120657570D01*
X125140270Y-120498820D01*
X124091020Y-120498820D01*
X123837020Y-120498820D01*
X122787770Y-120498820D01*
X122629020Y-120657570D01*
X122625948Y-120821820D01*
X119752092Y-120821820D01*
X119752092Y-119921820D01*
X122625948Y-119921820D01*
X122629020Y-120086070D01*
X122787770Y-120244820D01*
X123837020Y-120244820D01*
X123837020Y-119445570D01*
X124091020Y-119445570D01*
X124091020Y-120244820D01*
X125140270Y-120244820D01*
X125299020Y-120086070D01*
X125302092Y-119921820D01*
X125289832Y-119797338D01*
X125253522Y-119677640D01*
X125194557Y-119567326D01*
X125115205Y-119470635D01*
X125018514Y-119391283D01*
X124908200Y-119332318D01*
X124788502Y-119296008D01*
X124664020Y-119283748D01*
X124249770Y-119286820D01*
X124091020Y-119445570D01*
X123837020Y-119445570D01*
X123678270Y-119286820D01*
X123264020Y-119283748D01*
X123139538Y-119296008D01*
X123019840Y-119332318D01*
X122909526Y-119391283D01*
X122812835Y-119470635D01*
X122733483Y-119567326D01*
X122674518Y-119677640D01*
X122638208Y-119797338D01*
X122625948Y-119921820D01*
X119752092Y-119921820D01*
X119752092Y-118461020D01*
X119732626Y-118263379D01*
X119674976Y-118073334D01*
X119652909Y-118032050D01*
X120090043Y-117850983D01*
X120686857Y-117452205D01*
X121194405Y-116944657D01*
X121593183Y-116347843D01*
X121776443Y-115905414D01*
X121827634Y-115932776D01*
X122017679Y-115990426D01*
X122215320Y-116009892D01*
X122627123Y-116009892D01*
X122625948Y-116021820D01*
X122625948Y-116921820D01*
X122638208Y-117046302D01*
X122674518Y-117166000D01*
X122733483Y-117276314D01*
X122812835Y-117373005D01*
X122909526Y-117452357D01*
X123019840Y-117511322D01*
X123139538Y-117547632D01*
X123264020Y-117559892D01*
X124250514Y-117559892D01*
X125703970Y-119013349D01*
X125693554Y-119028938D01*
X125551459Y-119371986D01*
X125479020Y-119736164D01*
X125479020Y-120107476D01*
X125551459Y-120471654D01*
X125693554Y-120814702D01*
X125899845Y-121123438D01*
X126162402Y-121385995D01*
X126471138Y-121592286D01*
X126814186Y-121734381D01*
X127178364Y-121806820D01*
X127549676Y-121806820D01*
X127913854Y-121734381D01*
X128256902Y-121592286D01*
X128565638Y-121385995D01*
X128828195Y-121123438D01*
X129034486Y-120814702D01*
X129176581Y-120471654D01*
X129249020Y-120107476D01*
X129249020Y-119736164D01*
X129176581Y-119371986D01*
X129034486Y-119028938D01*
X128828195Y-118720202D01*
X128565638Y-118457645D01*
X128256902Y-118251354D01*
X127913854Y-118109259D01*
X127549676Y-118036820D01*
X127230599Y-118036820D01*
X125302092Y-116108314D01*
X125302092Y-116021820D01*
X125300917Y-116009892D01*
X128965320Y-116009892D01*
X129162961Y-115990426D01*
X129353006Y-115932776D01*
X129502642Y-115852795D01*
X129549845Y-115923438D01*
X129812402Y-116185995D01*
X130121138Y-116392286D01*
X130464186Y-116534381D01*
X130828364Y-116606820D01*
X131199676Y-116606820D01*
X131563854Y-116534381D01*
X131906902Y-116392286D01*
X132215638Y-116185995D01*
X132290271Y-116111362D01*
X132297077Y-116124094D01*
X132393840Y-116242000D01*
X132511746Y-116338763D01*
X132646265Y-116410665D01*
X132792226Y-116454942D01*
X132944020Y-116469892D01*
X133224020Y-116469892D01*
X133375814Y-116454942D01*
X133521775Y-116410665D01*
X133564020Y-116388085D01*
X133606265Y-116410665D01*
X133752226Y-116454942D01*
X133904020Y-116469892D01*
X134184020Y-116469892D01*
X134335814Y-116454942D01*
X134481775Y-116410665D01*
X134551373Y-116373464D01*
X134564742Y-116417536D01*
X134642189Y-116562428D01*
X134746414Y-116689426D01*
X134873412Y-116793651D01*
X135018304Y-116871098D01*
X135175520Y-116918789D01*
X135339020Y-116934892D01*
X135739020Y-116934892D01*
X135902520Y-116918789D01*
X136059736Y-116871098D01*
X136204628Y-116793651D01*
X136306610Y-116709957D01*
X136337835Y-116748005D01*
X136434526Y-116827357D01*
X136544840Y-116886322D01*
X136664538Y-116922632D01*
X136789020Y-116934892D01*
X136903270Y-116931820D01*
X137062020Y-116773070D01*
X137062020Y-115948820D01*
X137042020Y-115948820D01*
X137042020Y-115694820D01*
X137062020Y-115694820D01*
X137062020Y-114870570D01*
X137316020Y-114870570D01*
X137316020Y-115694820D01*
X137336020Y-115694820D01*
X137336020Y-115948820D01*
X137316020Y-115948820D01*
X137316020Y-116773070D01*
X137474770Y-116931820D01*
X137589020Y-116934892D01*
X137713502Y-116922632D01*
X137833200Y-116886322D01*
X137943514Y-116827357D01*
X138040205Y-116748005D01*
X138119557Y-116651314D01*
X138178522Y-116541000D01*
X138203337Y-116459196D01*
X138298270Y-116466820D01*
X138457020Y-116308070D01*
X138457020Y-115648820D01*
X138437020Y-115648820D01*
X138437020Y-115394820D01*
X138457020Y-115394820D01*
X138457020Y-114735570D01*
X138298270Y-114576820D01*
X138176672Y-114586585D01*
X138057142Y-114623443D01*
X137947099Y-114682912D01*
X137850773Y-114762707D01*
X137848504Y-114765498D01*
X137833200Y-114757318D01*
X137713502Y-114721008D01*
X137589020Y-114708748D01*
X137474770Y-114711820D01*
X137316020Y-114870570D01*
X137062020Y-114870570D01*
X136903270Y-114711820D01*
X136789020Y-114708748D01*
X136664538Y-114721008D01*
X136544840Y-114757318D01*
X136434526Y-114816283D01*
X136337835Y-114895635D01*
X136306610Y-114933683D01*
X136204628Y-114849989D01*
X136059736Y-114772542D01*
X135902520Y-114724851D01*
X135739020Y-114708748D01*
X135339020Y-114708748D01*
X135175520Y-114724851D01*
X135053650Y-114761820D01*
X134685679Y-114761820D01*
X134616294Y-114704877D01*
X134481775Y-114632975D01*
X134335814Y-114588698D01*
X134184020Y-114573748D01*
X134178376Y-114573748D01*
X131992117Y-112387490D01*
X132233197Y-112282806D01*
X132399053Y-111950594D01*
X132496910Y-111592408D01*
X132523009Y-111222014D01*
X132476345Y-110853645D01*
X132358714Y-110501458D01*
X132233197Y-110266634D01*
X131943225Y-110140720D01*
X130809225Y-111274720D01*
X130823368Y-111288863D01*
X130643763Y-111468468D01*
X130629620Y-111454325D01*
X130615478Y-111468468D01*
X130435873Y-111288863D01*
X130450015Y-111274720D01*
X129316015Y-110140720D01*
X129026043Y-110266634D01*
X128860187Y-110598846D01*
X128762330Y-110957032D01*
X128736231Y-111327426D01*
X128782895Y-111695795D01*
X128787221Y-111708748D01*
X128689020Y-111708748D01*
X128525520Y-111724851D01*
X128368304Y-111772542D01*
X128223412Y-111849989D01*
X128096414Y-111954214D01*
X128064020Y-111993686D01*
X128031626Y-111954214D01*
X127904628Y-111849989D01*
X127759736Y-111772542D01*
X127602520Y-111724851D01*
X127439020Y-111708748D01*
X127224020Y-111708748D01*
X127224020Y-109961115D01*
X129495620Y-109961115D01*
X130629620Y-111095115D01*
X131763620Y-109961115D01*
X131637706Y-109671143D01*
X131305494Y-109505287D01*
X130947308Y-109407430D01*
X130576914Y-109381331D01*
X130208545Y-109427995D01*
X129856358Y-109545626D01*
X129621534Y-109671143D01*
X129495620Y-109961115D01*
X127224020Y-109961115D01*
X127224020Y-108847327D01*
X127356902Y-108792286D01*
X127665638Y-108585995D01*
X127928195Y-108323438D01*
X128134486Y-108014702D01*
X128276581Y-107671654D01*
X128349020Y-107307476D01*
X128349020Y-106936164D01*
X128276581Y-106571986D01*
X128134486Y-106228938D01*
X127928195Y-105920202D01*
X127665638Y-105657645D01*
X127356902Y-105451354D01*
X127013854Y-105309259D01*
X126649676Y-105236820D01*
X126278364Y-105236820D01*
X125914186Y-105309259D01*
X125571138Y-105451354D01*
X125262402Y-105657645D01*
X124999845Y-105920202D01*
X124793554Y-106228938D01*
X124651459Y-106571986D01*
X124579020Y-106936164D01*
X124579020Y-107307476D01*
X124651459Y-107671654D01*
X124793554Y-108014702D01*
X124999845Y-108323438D01*
X125262402Y-108585995D01*
X125571138Y-108792286D01*
X125704020Y-108847328D01*
X125704021Y-111708748D01*
X125589020Y-111708748D01*
X125425520Y-111724851D01*
X125268304Y-111772542D01*
X125123412Y-111849989D01*
X125021430Y-111933683D01*
X124990205Y-111895635D01*
X124893514Y-111816283D01*
X124783200Y-111757318D01*
X124663502Y-111721008D01*
X124539020Y-111708748D01*
X124424770Y-111711820D01*
X124266022Y-111870568D01*
X124266022Y-111711820D01*
X124158486Y-111711820D01*
X124191110Y-111592408D01*
X124217209Y-111222014D01*
X124170545Y-110853645D01*
X124052914Y-110501458D01*
X123927397Y-110266634D01*
X123637425Y-110140720D01*
X122503425Y-111274720D01*
X122517568Y-111288863D01*
X122337963Y-111468468D01*
X122323820Y-111454325D01*
X122309678Y-111468468D01*
X122130073Y-111288863D01*
X122144215Y-111274720D01*
X121010215Y-110140720D01*
X120720243Y-110266634D01*
X120554387Y-110598846D01*
X120456530Y-110957032D01*
X120430431Y-111327426D01*
X120470934Y-111647160D01*
X120090043Y-111392657D01*
X119647352Y-111209288D01*
X119674976Y-111157606D01*
X119732626Y-110967561D01*
X119752092Y-110769920D01*
X119752092Y-109961115D01*
X121189820Y-109961115D01*
X122323820Y-111095115D01*
X123457820Y-109961115D01*
X123331906Y-109671143D01*
X122999694Y-109505287D01*
X122641508Y-109407430D01*
X122271114Y-109381331D01*
X121902745Y-109427995D01*
X121550558Y-109545626D01*
X121315734Y-109671143D01*
X121189820Y-109961115D01*
X119752092Y-109961115D01*
X119752092Y-107119920D01*
X119732626Y-106922279D01*
X119674976Y-106732234D01*
X119581359Y-106557087D01*
X119493643Y-106450206D01*
X119577267Y-106380933D01*
X119656176Y-106283879D01*
X119714634Y-106173296D01*
X119750395Y-106053433D01*
X119762085Y-105928897D01*
X119759020Y-105907570D01*
X119600270Y-105748820D01*
X118971020Y-105748820D01*
X118971020Y-105768820D01*
X118802092Y-105768820D01*
X118802092Y-105474820D01*
X118971020Y-105474820D01*
X118971020Y-105494820D01*
X119600270Y-105494820D01*
X119759020Y-105336070D01*
X119762085Y-105314743D01*
X119750395Y-105190207D01*
X119714634Y-105070344D01*
X119656176Y-104959761D01*
X119577267Y-104862707D01*
X119573350Y-104859462D01*
X119623794Y-104825757D01*
X119767957Y-104681594D01*
X119881225Y-104512076D01*
X119959246Y-104323718D01*
X119959861Y-104320625D01*
X121151720Y-104320625D01*
X121277634Y-104610597D01*
X121609846Y-104776453D01*
X121968032Y-104874310D01*
X122338426Y-104900409D01*
X122706795Y-104853745D01*
X123058982Y-104736114D01*
X123293806Y-104610597D01*
X123419720Y-104320625D01*
X123407020Y-104307925D01*
X129482920Y-104307925D01*
X129608834Y-104597897D01*
X129941046Y-104763753D01*
X130299232Y-104861610D01*
X130669626Y-104887709D01*
X131037995Y-104841045D01*
X131390182Y-104723414D01*
X131625006Y-104597897D01*
X131750920Y-104307925D01*
X130616920Y-103173925D01*
X129482920Y-104307925D01*
X123407020Y-104307925D01*
X122285720Y-103186625D01*
X121151720Y-104320625D01*
X119959861Y-104320625D01*
X119999020Y-104123759D01*
X119999020Y-103919881D01*
X119959246Y-103719922D01*
X119881225Y-103531564D01*
X119767957Y-103362046D01*
X119623794Y-103217883D01*
X119454276Y-103104615D01*
X119265918Y-103026594D01*
X119065959Y-102986820D01*
X118862081Y-102986820D01*
X118662122Y-103026594D01*
X118571739Y-103064032D01*
X118554628Y-103049989D01*
X118409736Y-102972542D01*
X118252520Y-102924851D01*
X118089020Y-102908748D01*
X117689020Y-102908748D01*
X117525520Y-102924851D01*
X117368304Y-102972542D01*
X117223412Y-103049989D01*
X117096414Y-103154214D01*
X117064020Y-103193686D01*
X117031626Y-103154214D01*
X116904628Y-103049989D01*
X116759736Y-102972542D01*
X116602520Y-102924851D01*
X116439020Y-102908748D01*
X116039020Y-102908748D01*
X115875520Y-102924851D01*
X115718304Y-102972542D01*
X115573412Y-103049989D01*
X115446414Y-103154214D01*
X115342189Y-103281212D01*
X115264742Y-103426104D01*
X115217051Y-103583320D01*
X115200948Y-103746820D01*
X115200948Y-104296820D01*
X115217051Y-104460320D01*
X115264742Y-104617536D01*
X115342189Y-104762428D01*
X115446414Y-104889426D01*
X115479021Y-104916186D01*
X115479021Y-104936420D01*
X115396414Y-105004214D01*
X115292189Y-105131212D01*
X115214742Y-105276104D01*
X115167051Y-105433320D01*
X115150948Y-105596820D01*
X115150948Y-105996820D01*
X115167051Y-106160320D01*
X115214742Y-106317536D01*
X115292189Y-106462428D01*
X115375883Y-106564410D01*
X115337835Y-106595635D01*
X115258483Y-106692326D01*
X115199518Y-106802640D01*
X115163208Y-106922338D01*
X115150948Y-107046820D01*
X115154020Y-107161070D01*
X115312770Y-107319820D01*
X116137020Y-107319820D01*
X116137020Y-107299820D01*
X116391020Y-107299820D01*
X116391020Y-107319820D01*
X116411020Y-107319820D01*
X116411020Y-107573820D01*
X116391020Y-107573820D01*
X116391020Y-107593820D01*
X116137020Y-107593820D01*
X116137020Y-107573820D01*
X115312770Y-107573820D01*
X115154020Y-107732570D01*
X115150948Y-107846820D01*
X115163208Y-107971302D01*
X115168599Y-107989074D01*
X115057142Y-108023443D01*
X114947099Y-108082912D01*
X114850773Y-108162707D01*
X114771864Y-108259761D01*
X114713406Y-108370344D01*
X114677645Y-108490207D01*
X114665955Y-108614743D01*
X114669020Y-108636070D01*
X114827770Y-108794820D01*
X115457020Y-108794820D01*
X115457020Y-108774820D01*
X115625948Y-108774820D01*
X115625948Y-109091820D01*
X115640898Y-109243614D01*
X115685175Y-109389575D01*
X115711020Y-109437928D01*
X115711020Y-109708070D01*
X115869770Y-109866820D01*
X115991368Y-109857055D01*
X116110898Y-109820197D01*
X116120529Y-109814992D01*
X116252226Y-109854942D01*
X116404020Y-109869892D01*
X116684020Y-109869892D01*
X116835814Y-109854942D01*
X116975948Y-109812433D01*
X116975948Y-110769920D01*
X116995414Y-110967561D01*
X117053064Y-111157606D01*
X117080688Y-111209288D01*
X116637997Y-111392657D01*
X116041183Y-111791435D01*
X115533635Y-112298983D01*
X115134857Y-112895797D01*
X114953790Y-113332931D01*
X114912506Y-113310864D01*
X114722461Y-113253214D01*
X114524820Y-113233748D01*
X110874820Y-113233748D01*
X110677179Y-113253214D01*
X110487134Y-113310864D01*
X110457766Y-113326562D01*
X110334486Y-113028938D01*
X110128195Y-112720202D01*
X109865638Y-112457645D01*
X109556902Y-112251354D01*
X109213854Y-112109259D01*
X108849676Y-112036820D01*
X108478364Y-112036820D01*
X108114186Y-112109259D01*
X107771138Y-112251354D01*
X107462402Y-112457645D01*
X107199845Y-112720202D01*
X106993554Y-113028938D01*
X106851459Y-113371986D01*
X106779020Y-113736164D01*
X106779020Y-114107476D01*
X106851459Y-114471654D01*
X106993554Y-114814702D01*
X107199845Y-115123438D01*
X107462402Y-115385995D01*
X107616424Y-115488909D01*
X107564020Y-115483748D01*
X106164020Y-115483748D01*
X106039538Y-115496008D01*
X105919840Y-115532318D01*
X105809526Y-115591283D01*
X105712835Y-115670635D01*
X105633483Y-115767326D01*
X105582974Y-115861820D01*
X105002128Y-115861820D01*
X104930527Y-115790219D01*
X105220497Y-115664306D01*
X105386353Y-115332094D01*
X105484210Y-114973908D01*
X105510309Y-114603514D01*
X105463645Y-114235145D01*
X105346014Y-113882958D01*
X105220497Y-113648134D01*
X104930525Y-113522220D01*
X103796525Y-114656220D01*
X103810668Y-114670363D01*
X103631063Y-114849968D01*
X103616920Y-114835825D01*
X103602778Y-114849968D01*
X103423173Y-114670363D01*
X103437315Y-114656220D01*
X102303315Y-113522220D01*
X102122115Y-113600902D01*
X102076581Y-113371986D01*
X102064416Y-113342615D01*
X102482920Y-113342615D01*
X103616920Y-114476615D01*
X104750920Y-113342615D01*
X104625006Y-113052643D01*
X104292794Y-112886787D01*
X103934608Y-112788930D01*
X103564214Y-112762831D01*
X103195845Y-112809495D01*
X102843658Y-112927126D01*
X102608834Y-113052643D01*
X102482920Y-113342615D01*
X102064416Y-113342615D01*
X101934486Y-113028938D01*
X101728195Y-112720202D01*
X101465638Y-112457645D01*
X101156902Y-112251354D01*
X100813854Y-112109259D01*
X100449676Y-112036820D01*
X100078364Y-112036820D01*
X99714186Y-112109259D01*
X99371138Y-112251354D01*
X99062402Y-112457645D01*
X98799845Y-112720202D01*
X98593554Y-113028938D01*
X98521022Y-113204046D01*
X98513023Y-113122834D01*
X98469566Y-112979573D01*
X98398994Y-112847544D01*
X98304021Y-112731819D01*
X98275024Y-112708022D01*
X97171539Y-111604537D01*
X97226581Y-111471654D01*
X97299020Y-111107476D01*
X97299020Y-110736164D01*
X97226581Y-110371986D01*
X97084486Y-110028938D01*
X96878195Y-109720202D01*
X96615638Y-109457645D01*
X96306902Y-109251354D01*
X96252686Y-109228897D01*
X114665955Y-109228897D01*
X114677645Y-109353433D01*
X114713406Y-109473296D01*
X114771864Y-109583879D01*
X114850773Y-109680933D01*
X114947099Y-109760728D01*
X115057142Y-109820197D01*
X115176672Y-109857055D01*
X115298270Y-109866820D01*
X115457020Y-109708070D01*
X115457020Y-109048820D01*
X114827770Y-109048820D01*
X114669020Y-109207570D01*
X114665955Y-109228897D01*
X96252686Y-109228897D01*
X95963854Y-109109259D01*
X95599676Y-109036820D01*
X95228364Y-109036820D01*
X94864186Y-109109259D01*
X94541106Y-109243083D01*
X94539447Y-104235425D01*
X99130020Y-104235425D01*
X99255934Y-104525397D01*
X99588146Y-104691253D01*
X99946332Y-104789110D01*
X100316726Y-104815209D01*
X100685095Y-104768545D01*
X101037282Y-104650914D01*
X101272106Y-104525397D01*
X101398020Y-104235425D01*
X107530020Y-104235425D01*
X107655934Y-104525397D01*
X107988146Y-104691253D01*
X108346332Y-104789110D01*
X108716726Y-104815209D01*
X109085095Y-104768545D01*
X109437282Y-104650914D01*
X109672106Y-104525397D01*
X109798020Y-104235425D01*
X108664020Y-103101425D01*
X107530020Y-104235425D01*
X101398020Y-104235425D01*
X100264020Y-103101425D01*
X99130020Y-104235425D01*
X94539447Y-104235425D01*
X94538739Y-102102337D01*
X98566595Y-102101712D01*
X98494587Y-102245946D01*
X98396730Y-102604132D01*
X98370631Y-102974526D01*
X98417295Y-103342895D01*
X98534926Y-103695082D01*
X98660443Y-103929906D01*
X98950415Y-104055820D01*
X100084415Y-102921820D01*
X100070273Y-102907678D01*
X100249878Y-102728073D01*
X100264020Y-102742215D01*
X100278163Y-102728073D01*
X100457768Y-102907678D01*
X100443625Y-102921820D01*
X101577625Y-104055820D01*
X101867597Y-103929906D01*
X102033453Y-103597694D01*
X102131310Y-103239508D01*
X102157409Y-102869114D01*
X102110745Y-102500745D01*
X101993114Y-102148558D01*
X101967792Y-102101184D01*
X106967247Y-102100408D01*
X106894587Y-102245946D01*
X106796730Y-102604132D01*
X106770631Y-102974526D01*
X106817295Y-103342895D01*
X106934926Y-103695082D01*
X107060443Y-103929906D01*
X107350415Y-104055820D01*
X108484415Y-102921820D01*
X108470273Y-102907678D01*
X108649878Y-102728073D01*
X108664020Y-102742215D01*
X108678163Y-102728073D01*
X108857768Y-102907678D01*
X108843625Y-102921820D01*
X109977625Y-104055820D01*
X110267597Y-103929906D01*
X110433453Y-103597694D01*
X110531310Y-103239508D01*
X110557409Y-102869114D01*
X110510745Y-102500745D01*
X110393114Y-102148558D01*
X110367095Y-102099880D01*
X120632542Y-102098286D01*
X120516287Y-102331146D01*
X120418430Y-102689332D01*
X120392331Y-103059726D01*
X120438995Y-103428095D01*
X120556626Y-103780282D01*
X120682143Y-104015106D01*
X120972115Y-104141020D01*
X122106115Y-103007020D01*
X122091973Y-102992878D01*
X122271578Y-102813273D01*
X122285720Y-102827415D01*
X122299863Y-102813273D01*
X122479468Y-102992878D01*
X122465325Y-103007020D01*
X123599325Y-104141020D01*
X123889297Y-104015106D01*
X124055153Y-103682894D01*
X124153010Y-103324708D01*
X124179109Y-102954314D01*
X124132445Y-102585945D01*
X124014814Y-102233758D01*
X123942127Y-102097772D01*
X128958047Y-102096993D01*
X128847487Y-102318446D01*
X128749630Y-102676632D01*
X128723531Y-103047026D01*
X128770195Y-103415395D01*
X128887826Y-103767582D01*
X129013343Y-104002406D01*
X129303315Y-104128320D01*
X130437315Y-102994320D01*
X130423173Y-102980178D01*
X130602778Y-102800573D01*
X130616920Y-102814715D01*
X130631063Y-102800573D01*
X130810668Y-102980178D01*
X130796525Y-102994320D01*
X131930525Y-104128320D01*
X132220497Y-104002406D01*
X132386353Y-103670194D01*
X132484210Y-103312008D01*
X132510309Y-102941614D01*
X132463645Y-102573245D01*
X132346014Y-102221058D01*
X132279424Y-102096477D01*
X133694847Y-102096257D01*
X133591852Y-102344908D01*
X133529020Y-102660787D01*
X133529020Y-106982853D01*
X133591852Y-107298732D01*
X133715102Y-107596283D01*
X133894033Y-107864072D01*
X134121768Y-108091807D01*
X134279020Y-108196880D01*
X134279020Y-108414657D01*
X134165765Y-108425812D01*
X133999169Y-108476348D01*
X133845633Y-108558415D01*
X133711058Y-108668858D01*
X133600615Y-108803433D01*
X133518548Y-108956969D01*
X133468012Y-109123565D01*
X133450948Y-109296819D01*
X133450948Y-112146821D01*
X133468012Y-112320075D01*
X133518548Y-112486671D01*
X133600615Y-112640207D01*
X133711058Y-112774782D01*
X133845633Y-112885225D01*
X133999169Y-112967292D01*
X134165765Y-113017828D01*
X134339019Y-113034892D01*
X135064021Y-113034892D01*
X135237275Y-113017828D01*
X135403871Y-112967292D01*
X135557407Y-112885225D01*
X135691982Y-112774782D01*
X135802425Y-112640207D01*
X135884492Y-112486671D01*
X135935028Y-112320075D01*
X135952092Y-112146821D01*
X135952092Y-110662340D01*
X135985609Y-110599633D01*
X136036215Y-110432810D01*
X136049020Y-110302797D01*
X136049020Y-110302789D01*
X136053301Y-110259320D01*
X136049020Y-110215851D01*
X136049020Y-108196879D01*
X136206272Y-108091807D01*
X136434007Y-107864072D01*
X136612938Y-107596283D01*
X136736188Y-107298732D01*
X136799020Y-106982853D01*
X136799020Y-104371820D01*
X136825948Y-104371820D01*
X136838208Y-104496302D01*
X136874518Y-104616000D01*
X136933483Y-104726314D01*
X137012835Y-104823005D01*
X137109526Y-104902357D01*
X137219840Y-104961322D01*
X137339538Y-104997632D01*
X137464020Y-105009892D01*
X138078270Y-105006820D01*
X138237020Y-104848070D01*
X138237020Y-103248820D01*
X138491020Y-103248820D01*
X138491020Y-104848070D01*
X138649770Y-105006820D01*
X139264020Y-105009892D01*
X139388502Y-104997632D01*
X139508200Y-104961322D01*
X139618514Y-104902357D01*
X139715205Y-104823005D01*
X139794557Y-104726314D01*
X139853522Y-104616000D01*
X139889832Y-104496302D01*
X139902092Y-104371820D01*
X139899020Y-103407570D01*
X139740270Y-103248820D01*
X138491020Y-103248820D01*
X138237020Y-103248820D01*
X136987770Y-103248820D01*
X136829020Y-103407570D01*
X136825948Y-104371820D01*
X136799020Y-104371820D01*
X136799020Y-102660787D01*
X136736188Y-102344908D01*
X136633004Y-102095801D01*
X136826661Y-102095771D01*
X136829020Y-102836070D01*
X136987770Y-102994820D01*
X138237020Y-102994820D01*
X138237020Y-102974820D01*
X138491020Y-102974820D01*
X138491020Y-102994820D01*
X139740270Y-102994820D01*
X139899020Y-102836070D01*
X139901380Y-102095293D01*
X140095258Y-102095263D01*
X139991852Y-102344908D01*
%TA.AperFunction,Conductor*%
D19*
G36*
X139991852Y-102344908D02*
G01*
X139929020Y-102660787D01*
X139929020Y-106772708D01*
X139922302Y-106884415D01*
X139966059Y-107203495D01*
X140071225Y-107507908D01*
X140164206Y-107681864D01*
X140428607Y-107777628D01*
X140749415Y-107456820D01*
X141108625Y-107456820D01*
X140608212Y-107957233D01*
X140703976Y-108221634D01*
X140993591Y-108362524D01*
X141305128Y-108444204D01*
X141626615Y-108463538D01*
X141945695Y-108419781D01*
X142250108Y-108314615D01*
X142298673Y-108288657D01*
X142298828Y-108758748D01*
X141889020Y-108758748D01*
X141725520Y-108774851D01*
X141708264Y-108780086D01*
X141616982Y-108668858D01*
X141482407Y-108558415D01*
X141328871Y-108476348D01*
X141162275Y-108425812D01*
X140989021Y-108408748D01*
X140264019Y-108408748D01*
X140090765Y-108425812D01*
X139924169Y-108476348D01*
X139889998Y-108494613D01*
X139902092Y-108371820D01*
X139902092Y-105871820D01*
X139889832Y-105747338D01*
X139853522Y-105627640D01*
X139794557Y-105517326D01*
X139715205Y-105420635D01*
X139618514Y-105341283D01*
X139508200Y-105282318D01*
X139388502Y-105246008D01*
X139264020Y-105233748D01*
X137464020Y-105233748D01*
X137339538Y-105246008D01*
X137219840Y-105282318D01*
X137109526Y-105341283D01*
X137012835Y-105420635D01*
X136933483Y-105517326D01*
X136874518Y-105627640D01*
X136838208Y-105747338D01*
X136825948Y-105871820D01*
X136825948Y-108371820D01*
X136838208Y-108496302D01*
X136874518Y-108616000D01*
X136933483Y-108726314D01*
X137012835Y-108823005D01*
X137109526Y-108902357D01*
X137219840Y-108961322D01*
X137339538Y-108997632D01*
X137464020Y-109009892D01*
X137670989Y-109009892D01*
X137707488Y-109054366D01*
X137707491Y-109054369D01*
X137735204Y-109088137D01*
X137768971Y-109115849D01*
X139375948Y-110722827D01*
X139375948Y-112146821D01*
X139393012Y-112320075D01*
X139443548Y-112486671D01*
X139525615Y-112640207D01*
X139636058Y-112774782D01*
X139770633Y-112885225D01*
X139924169Y-112967292D01*
X140090765Y-113017828D01*
X140264019Y-113034892D01*
X140989021Y-113034892D01*
X141162275Y-113017828D01*
X141279020Y-112982414D01*
X141279021Y-114633748D01*
X141051296Y-114633748D01*
X141039020Y-114632539D01*
X141026744Y-114633748D01*
X140714019Y-114633748D01*
X140682828Y-114636820D01*
X139988968Y-114636820D01*
X139981775Y-114632975D01*
X139835814Y-114588698D01*
X139684020Y-114573748D01*
X139404020Y-114573748D01*
X139252226Y-114588698D01*
X139120529Y-114628648D01*
X139110898Y-114623443D01*
X138991368Y-114586585D01*
X138869770Y-114576820D01*
X138711020Y-114735570D01*
X138711020Y-115005712D01*
X138685175Y-115054065D01*
X138640898Y-115200026D01*
X138625948Y-115351820D01*
X138625948Y-115691820D01*
X138640898Y-115843614D01*
X138659020Y-115903354D01*
X138659021Y-118058570D01*
X138549676Y-118036820D01*
X138178364Y-118036820D01*
X137814186Y-118109259D01*
X137471138Y-118251354D01*
X137162402Y-118457645D01*
X136899845Y-118720202D01*
X136693554Y-119028938D01*
X136551459Y-119371986D01*
X136479020Y-119736164D01*
X136479020Y-120107476D01*
X136551459Y-120471654D01*
X136693554Y-120814702D01*
X136899845Y-121123438D01*
X137162402Y-121385995D01*
X137471138Y-121592286D01*
X137814186Y-121734381D01*
X138178364Y-121806820D01*
X138549676Y-121806820D01*
X138913854Y-121734381D01*
X139256902Y-121592286D01*
X139565638Y-121385995D01*
X139828195Y-121123438D01*
X140034486Y-120814702D01*
X140176581Y-120471654D01*
X140249020Y-120107476D01*
X140249020Y-119970174D01*
X140339538Y-119997632D01*
X140464020Y-120009892D01*
X141078270Y-120006820D01*
X141237020Y-119848070D01*
X141237020Y-118923820D01*
X141217020Y-118923820D01*
X141217020Y-118669820D01*
X141237020Y-118669820D01*
X141237020Y-117745570D01*
X141078270Y-117586820D01*
X140464020Y-117583748D01*
X140429020Y-117587195D01*
X140429020Y-117008931D01*
X140540765Y-117042828D01*
X140714019Y-117059892D01*
X142014021Y-117059892D01*
X142187275Y-117042828D01*
X142301563Y-117008159D01*
X142301755Y-117587464D01*
X142264020Y-117583748D01*
X141649770Y-117586820D01*
X141491020Y-117745570D01*
X141491020Y-118669820D01*
X141511020Y-118669820D01*
X141511020Y-118923820D01*
X141491020Y-118923820D01*
X141491020Y-119848070D01*
X141649770Y-120006820D01*
X142264020Y-120009892D01*
X142302557Y-120006097D01*
X142303801Y-123761889D01*
X117336569Y-123764473D01*
X117364832Y-123671302D01*
X117377092Y-123546820D01*
X117374020Y-123432570D01*
X117215270Y-123273820D01*
X116391020Y-123273820D01*
X116391020Y-123293820D01*
X116137020Y-123293820D01*
X116137020Y-123273820D01*
X115312770Y-123273820D01*
X115154020Y-123432570D01*
X115150948Y-123546820D01*
X115163208Y-123671302D01*
X115191539Y-123764695D01*
X105322538Y-123765717D01*
X105386353Y-123637894D01*
X105484210Y-123279708D01*
X105510309Y-122909314D01*
X105463645Y-122540945D01*
X105346014Y-122188758D01*
X105220497Y-121953934D01*
X104930525Y-121828020D01*
X103796525Y-122962020D01*
X103810668Y-122976163D01*
X103631063Y-123155768D01*
X103616920Y-123141625D01*
X103602778Y-123155768D01*
X103423173Y-122976163D01*
X103437315Y-122962020D01*
X102303315Y-121828020D01*
X102013343Y-121953934D01*
X101847487Y-122286146D01*
X101749630Y-122644332D01*
X101723531Y-123014726D01*
X101770195Y-123383095D01*
X101887826Y-123735282D01*
X101904283Y-123766071D01*
X97073433Y-123766571D01*
X97118653Y-123675994D01*
X97216510Y-123317808D01*
X97242609Y-122947414D01*
X97195945Y-122579045D01*
X97078314Y-122226858D01*
X96952797Y-121992034D01*
X96662825Y-121866120D01*
X95528825Y-123000120D01*
X95542968Y-123014263D01*
X95363363Y-123193868D01*
X95349220Y-123179725D01*
X95335078Y-123193868D01*
X95155473Y-123014263D01*
X95169615Y-123000120D01*
X95155473Y-122985978D01*
X95335078Y-122806373D01*
X95349220Y-122820515D01*
X96483220Y-121686515D01*
X96466676Y-121648415D01*
X102482920Y-121648415D01*
X103616920Y-122782415D01*
X104750920Y-121648415D01*
X104625006Y-121358443D01*
X104292794Y-121192587D01*
X103934608Y-121094730D01*
X103564214Y-121068631D01*
X103195845Y-121115295D01*
X102843658Y-121232926D01*
X102608834Y-121358443D01*
X102482920Y-121648415D01*
X96466676Y-121648415D01*
X96357306Y-121396543D01*
X96025094Y-121230687D01*
X95666908Y-121132830D01*
X95296514Y-121106731D01*
X94928145Y-121153395D01*
X94575958Y-121271026D01*
X94545099Y-121287521D01*
X94544978Y-120921820D01*
X105525948Y-120921820D01*
X105538208Y-121046302D01*
X105574518Y-121166000D01*
X105633483Y-121276314D01*
X105712835Y-121373005D01*
X105809526Y-121452357D01*
X105919840Y-121511322D01*
X106039538Y-121547632D01*
X106164020Y-121559892D01*
X106578270Y-121556820D01*
X106737020Y-121398070D01*
X106737020Y-120598820D01*
X106991020Y-120598820D01*
X106991020Y-121398070D01*
X107149770Y-121556820D01*
X107564020Y-121559892D01*
X107688502Y-121547632D01*
X107808200Y-121511322D01*
X107918514Y-121452357D01*
X108015205Y-121373005D01*
X108094557Y-121276314D01*
X108153522Y-121166000D01*
X108189832Y-121046302D01*
X108202092Y-120921820D01*
X109525948Y-120921820D01*
X109538208Y-121046302D01*
X109574518Y-121166000D01*
X109633483Y-121276314D01*
X109712835Y-121373005D01*
X109809526Y-121452357D01*
X109919840Y-121511322D01*
X110039538Y-121547632D01*
X110164020Y-121559892D01*
X110578270Y-121556820D01*
X110737020Y-121398070D01*
X110737020Y-120598820D01*
X110991020Y-120598820D01*
X110991020Y-121398070D01*
X111149770Y-121556820D01*
X111564020Y-121559892D01*
X111688502Y-121547632D01*
X111808200Y-121511322D01*
X111918514Y-121452357D01*
X112015205Y-121373005D01*
X112094557Y-121276314D01*
X112153522Y-121166000D01*
X112189832Y-121046302D01*
X112202092Y-120921820D01*
X112199020Y-120757570D01*
X112040270Y-120598820D01*
X110991020Y-120598820D01*
X110737020Y-120598820D01*
X109687770Y-120598820D01*
X109529020Y-120757570D01*
X109525948Y-120921820D01*
X108202092Y-120921820D01*
X108199020Y-120757570D01*
X108040270Y-120598820D01*
X106991020Y-120598820D01*
X106737020Y-120598820D01*
X105687770Y-120598820D01*
X105529020Y-120757570D01*
X105525948Y-120921820D01*
X94544978Y-120921820D01*
X94543472Y-116379854D01*
X94660646Y-116438353D01*
X95018832Y-116536210D01*
X95389226Y-116562309D01*
X95757595Y-116515645D01*
X96109782Y-116398014D01*
X96344606Y-116272497D01*
X96470520Y-115982525D01*
X95336520Y-114848525D01*
X95322378Y-114862668D01*
X95142773Y-114683063D01*
X95156915Y-114668920D01*
X95142773Y-114654778D01*
X95322378Y-114475173D01*
X95336520Y-114489315D01*
X96470520Y-113355315D01*
X96344606Y-113065343D01*
X96012394Y-112899487D01*
X95654208Y-112801630D01*
X95633207Y-112800150D01*
X95963854Y-112734381D01*
X96096737Y-112679339D01*
X97004020Y-113586622D01*
X97004020Y-113780425D01*
X96940097Y-113660834D01*
X96650125Y-113534920D01*
X95516125Y-114668920D01*
X96650125Y-115802920D01*
X96940097Y-115677006D01*
X97004021Y-115548966D01*
X97004021Y-117084488D01*
X97000344Y-117121820D01*
X97015018Y-117270805D01*
X97058474Y-117414066D01*
X97129046Y-117546096D01*
X97200221Y-117632822D01*
X97224020Y-117661821D01*
X97253018Y-117685619D01*
X97706501Y-118139102D01*
X97651459Y-118271986D01*
X97579020Y-118636164D01*
X97579020Y-119007476D01*
X97651459Y-119371654D01*
X97793554Y-119714702D01*
X97999845Y-120023438D01*
X98262402Y-120285995D01*
X98571138Y-120492286D01*
X98914186Y-120634381D01*
X99278364Y-120706820D01*
X99649676Y-120706820D01*
X100013854Y-120634381D01*
X100356902Y-120492286D01*
X100665638Y-120285995D01*
X100928195Y-120023438D01*
X100929276Y-120021820D01*
X105525948Y-120021820D01*
X105529020Y-120186070D01*
X105687770Y-120344820D01*
X106737020Y-120344820D01*
X106737020Y-119545570D01*
X106991020Y-119545570D01*
X106991020Y-120344820D01*
X108040270Y-120344820D01*
X108199020Y-120186070D01*
X108202092Y-120021820D01*
X109525948Y-120021820D01*
X109529020Y-120186070D01*
X109687770Y-120344820D01*
X110737020Y-120344820D01*
X110737020Y-119545570D01*
X110991020Y-119545570D01*
X110991020Y-120344820D01*
X112040270Y-120344820D01*
X112199020Y-120186070D01*
X112202092Y-120021820D01*
X112191547Y-119914743D01*
X114665955Y-119914743D01*
X114669020Y-119936070D01*
X114827770Y-120094820D01*
X115457020Y-120094820D01*
X115457020Y-119435570D01*
X115298270Y-119276820D01*
X115176672Y-119286585D01*
X115057142Y-119323443D01*
X114947099Y-119382912D01*
X114850773Y-119462707D01*
X114771864Y-119559761D01*
X114713406Y-119670344D01*
X114677645Y-119790207D01*
X114665955Y-119914743D01*
X112191547Y-119914743D01*
X112189832Y-119897338D01*
X112153522Y-119777640D01*
X112094557Y-119667326D01*
X112015205Y-119570635D01*
X111918514Y-119491283D01*
X111808200Y-119432318D01*
X111688502Y-119396008D01*
X111564020Y-119383748D01*
X111149770Y-119386820D01*
X110991020Y-119545570D01*
X110737020Y-119545570D01*
X110578270Y-119386820D01*
X110164020Y-119383748D01*
X110039538Y-119396008D01*
X109919840Y-119432318D01*
X109809526Y-119491283D01*
X109712835Y-119570635D01*
X109633483Y-119667326D01*
X109574518Y-119777640D01*
X109538208Y-119897338D01*
X109525948Y-120021820D01*
X108202092Y-120021820D01*
X108189832Y-119897338D01*
X108153522Y-119777640D01*
X108094557Y-119667326D01*
X108015205Y-119570635D01*
X107918514Y-119491283D01*
X107808200Y-119432318D01*
X107688502Y-119396008D01*
X107564020Y-119383748D01*
X107149770Y-119386820D01*
X106991020Y-119545570D01*
X106737020Y-119545570D01*
X106578270Y-119386820D01*
X106164020Y-119383748D01*
X106039538Y-119396008D01*
X105919840Y-119432318D01*
X105809526Y-119491283D01*
X105712835Y-119570635D01*
X105633483Y-119667326D01*
X105574518Y-119777640D01*
X105538208Y-119897338D01*
X105525948Y-120021820D01*
X100929276Y-120021820D01*
X101134486Y-119714702D01*
X101276581Y-119371654D01*
X101349020Y-119007476D01*
X101349020Y-118636164D01*
X101276581Y-118271986D01*
X101134486Y-117928938D01*
X100928195Y-117620202D01*
X100665638Y-117357645D01*
X100356902Y-117151354D01*
X100013854Y-117009259D01*
X99649676Y-116936820D01*
X99278364Y-116936820D01*
X98914186Y-117009259D01*
X98781302Y-117064301D01*
X98524020Y-116807019D01*
X98524020Y-114646832D01*
X98593554Y-114814702D01*
X98799845Y-115123438D01*
X99062402Y-115385995D01*
X99371138Y-115592286D01*
X99714186Y-115734381D01*
X100078364Y-115806820D01*
X100449676Y-115806820D01*
X100813854Y-115734381D01*
X100946737Y-115679339D01*
X102400221Y-117132823D01*
X102424019Y-117161821D01*
X102453017Y-117185619D01*
X102539744Y-117256794D01*
X102671773Y-117327366D01*
X102815034Y-117370823D01*
X102964020Y-117385497D01*
X103001353Y-117381820D01*
X105638002Y-117381820D01*
X105712835Y-117473005D01*
X105809526Y-117552357D01*
X105919840Y-117611322D01*
X106039538Y-117647632D01*
X106164020Y-117659892D01*
X107564020Y-117659892D01*
X107688502Y-117647632D01*
X107808200Y-117611322D01*
X107918514Y-117552357D01*
X108015205Y-117473005D01*
X108094557Y-117376314D01*
X108153522Y-117266000D01*
X108189832Y-117146302D01*
X108202092Y-117021820D01*
X108202092Y-116121820D01*
X108189832Y-115997338D01*
X108153522Y-115877640D01*
X108094557Y-115767326D01*
X108043487Y-115705096D01*
X108114186Y-115734381D01*
X108478364Y-115806820D01*
X108849676Y-115806820D01*
X109213854Y-115734381D01*
X109556902Y-115592286D01*
X109865638Y-115385995D01*
X109869813Y-115381820D01*
X109938049Y-115381820D01*
X109938864Y-115384506D01*
X110004193Y-115506730D01*
X109919840Y-115532318D01*
X109809526Y-115591283D01*
X109712835Y-115670635D01*
X109633483Y-115767326D01*
X109574518Y-115877640D01*
X109538208Y-115997338D01*
X109525948Y-116121820D01*
X109525948Y-117021820D01*
X109538208Y-117146302D01*
X109574518Y-117266000D01*
X109633483Y-117376314D01*
X109712835Y-117473005D01*
X109809526Y-117552357D01*
X109919840Y-117611322D01*
X110039538Y-117647632D01*
X110164020Y-117659892D01*
X111564020Y-117659892D01*
X111688502Y-117647632D01*
X111808200Y-117611322D01*
X111918514Y-117552357D01*
X112015205Y-117473005D01*
X112094557Y-117376314D01*
X112153522Y-117266000D01*
X112189832Y-117146302D01*
X112202092Y-117021820D01*
X112202092Y-116194349D01*
X112386550Y-116009892D01*
X114524820Y-116009892D01*
X114722461Y-115990426D01*
X114912506Y-115932776D01*
X114953790Y-115910709D01*
X115134857Y-116347843D01*
X115533635Y-116944657D01*
X116041183Y-117452205D01*
X116637997Y-117850983D01*
X117075131Y-118032050D01*
X117053064Y-118073334D01*
X116995414Y-118263379D01*
X116975948Y-118461020D01*
X116975948Y-119331207D01*
X116835814Y-119288698D01*
X116684020Y-119273748D01*
X116404020Y-119273748D01*
X116252226Y-119288698D01*
X116120529Y-119328648D01*
X116110898Y-119323443D01*
X115991368Y-119286585D01*
X115869770Y-119276820D01*
X115711020Y-119435570D01*
X115711020Y-119705712D01*
X115685175Y-119754065D01*
X115640898Y-119900026D01*
X115625948Y-120051820D01*
X115625948Y-120368820D01*
X115457020Y-120368820D01*
X115457020Y-120348820D01*
X114827770Y-120348820D01*
X114669020Y-120507570D01*
X114665955Y-120528897D01*
X114677645Y-120653433D01*
X114713406Y-120773296D01*
X114771864Y-120883879D01*
X114850773Y-120980933D01*
X114947099Y-121060728D01*
X115057142Y-121120197D01*
X115165066Y-121153476D01*
X115150948Y-121296820D01*
X115150948Y-121696820D01*
X115167051Y-121860320D01*
X115214742Y-122017536D01*
X115292189Y-122162428D01*
X115375883Y-122264410D01*
X115337835Y-122295635D01*
X115258483Y-122392326D01*
X115199518Y-122502640D01*
X115163208Y-122622338D01*
X115150948Y-122746820D01*
X115154020Y-122861070D01*
X115312770Y-123019820D01*
X116137020Y-123019820D01*
X116137020Y-122999820D01*
X116391020Y-122999820D01*
X116391020Y-123019820D01*
X117215270Y-123019820D01*
X117346845Y-122888245D01*
X117426187Y-122953359D01*
X117601334Y-123046976D01*
X117791379Y-123104626D01*
X117989020Y-123124092D01*
X118739020Y-123124092D01*
X118936661Y-123104626D01*
X119126706Y-123046976D01*
X119301853Y-122953359D01*
X119455370Y-122827370D01*
X119581359Y-122673853D01*
X119674976Y-122498706D01*
X119732626Y-122308661D01*
X119752092Y-122111020D01*
X119752092Y-120821820D01*
X122625948Y-120821820D01*
X122638208Y-120946302D01*
X122674518Y-121066000D01*
X122733483Y-121176314D01*
X122812835Y-121273005D01*
X122909526Y-121352357D01*
X123019840Y-121411322D01*
X123139538Y-121447632D01*
X123264020Y-121459892D01*
X123678270Y-121456820D01*
X123837020Y-121298070D01*
X123837020Y-120498820D01*
X124091020Y-120498820D01*
X124091020Y-121298070D01*
X124249770Y-121456820D01*
X124664020Y-121459892D01*
X124788502Y-121447632D01*
X124908200Y-121411322D01*
X125018514Y-121352357D01*
X125115205Y-121273005D01*
X125194557Y-121176314D01*
X125253522Y-121066000D01*
X125289832Y-120946302D01*
X125302092Y-120821820D01*
X125299020Y-120657570D01*
X125140270Y-120498820D01*
X124091020Y-120498820D01*
X123837020Y-120498820D01*
X122787770Y-120498820D01*
X122629020Y-120657570D01*
X122625948Y-120821820D01*
X119752092Y-120821820D01*
X119752092Y-119921820D01*
X122625948Y-119921820D01*
X122629020Y-120086070D01*
X122787770Y-120244820D01*
X123837020Y-120244820D01*
X123837020Y-119445570D01*
X124091020Y-119445570D01*
X124091020Y-120244820D01*
X125140270Y-120244820D01*
X125299020Y-120086070D01*
X125302092Y-119921820D01*
X125289832Y-119797338D01*
X125253522Y-119677640D01*
X125194557Y-119567326D01*
X125115205Y-119470635D01*
X125018514Y-119391283D01*
X124908200Y-119332318D01*
X124788502Y-119296008D01*
X124664020Y-119283748D01*
X124249770Y-119286820D01*
X124091020Y-119445570D01*
X123837020Y-119445570D01*
X123678270Y-119286820D01*
X123264020Y-119283748D01*
X123139538Y-119296008D01*
X123019840Y-119332318D01*
X122909526Y-119391283D01*
X122812835Y-119470635D01*
X122733483Y-119567326D01*
X122674518Y-119677640D01*
X122638208Y-119797338D01*
X122625948Y-119921820D01*
X119752092Y-119921820D01*
X119752092Y-118461020D01*
X119732626Y-118263379D01*
X119674976Y-118073334D01*
X119652909Y-118032050D01*
X120090043Y-117850983D01*
X120686857Y-117452205D01*
X121194405Y-116944657D01*
X121593183Y-116347843D01*
X121776443Y-115905414D01*
X121827634Y-115932776D01*
X122017679Y-115990426D01*
X122215320Y-116009892D01*
X122627123Y-116009892D01*
X122625948Y-116021820D01*
X122625948Y-116921820D01*
X122638208Y-117046302D01*
X122674518Y-117166000D01*
X122733483Y-117276314D01*
X122812835Y-117373005D01*
X122909526Y-117452357D01*
X123019840Y-117511322D01*
X123139538Y-117547632D01*
X123264020Y-117559892D01*
X124250514Y-117559892D01*
X125703970Y-119013349D01*
X125693554Y-119028938D01*
X125551459Y-119371986D01*
X125479020Y-119736164D01*
X125479020Y-120107476D01*
X125551459Y-120471654D01*
X125693554Y-120814702D01*
X125899845Y-121123438D01*
X126162402Y-121385995D01*
X126471138Y-121592286D01*
X126814186Y-121734381D01*
X127178364Y-121806820D01*
X127549676Y-121806820D01*
X127913854Y-121734381D01*
X128256902Y-121592286D01*
X128565638Y-121385995D01*
X128828195Y-121123438D01*
X129034486Y-120814702D01*
X129176581Y-120471654D01*
X129249020Y-120107476D01*
X129249020Y-119736164D01*
X129176581Y-119371986D01*
X129034486Y-119028938D01*
X128828195Y-118720202D01*
X128565638Y-118457645D01*
X128256902Y-118251354D01*
X127913854Y-118109259D01*
X127549676Y-118036820D01*
X127230599Y-118036820D01*
X125302092Y-116108314D01*
X125302092Y-116021820D01*
X125300917Y-116009892D01*
X128965320Y-116009892D01*
X129162961Y-115990426D01*
X129353006Y-115932776D01*
X129502642Y-115852795D01*
X129549845Y-115923438D01*
X129812402Y-116185995D01*
X130121138Y-116392286D01*
X130464186Y-116534381D01*
X130828364Y-116606820D01*
X131199676Y-116606820D01*
X131563854Y-116534381D01*
X131906902Y-116392286D01*
X132215638Y-116185995D01*
X132290271Y-116111362D01*
X132297077Y-116124094D01*
X132393840Y-116242000D01*
X132511746Y-116338763D01*
X132646265Y-116410665D01*
X132792226Y-116454942D01*
X132944020Y-116469892D01*
X133224020Y-116469892D01*
X133375814Y-116454942D01*
X133521775Y-116410665D01*
X133564020Y-116388085D01*
X133606265Y-116410665D01*
X133752226Y-116454942D01*
X133904020Y-116469892D01*
X134184020Y-116469892D01*
X134335814Y-116454942D01*
X134481775Y-116410665D01*
X134551373Y-116373464D01*
X134564742Y-116417536D01*
X134642189Y-116562428D01*
X134746414Y-116689426D01*
X134873412Y-116793651D01*
X135018304Y-116871098D01*
X135175520Y-116918789D01*
X135339020Y-116934892D01*
X135739020Y-116934892D01*
X135902520Y-116918789D01*
X136059736Y-116871098D01*
X136204628Y-116793651D01*
X136306610Y-116709957D01*
X136337835Y-116748005D01*
X136434526Y-116827357D01*
X136544840Y-116886322D01*
X136664538Y-116922632D01*
X136789020Y-116934892D01*
X136903270Y-116931820D01*
X137062020Y-116773070D01*
X137062020Y-115948820D01*
X137042020Y-115948820D01*
X137042020Y-115694820D01*
X137062020Y-115694820D01*
X137062020Y-114870570D01*
X137316020Y-114870570D01*
X137316020Y-115694820D01*
X137336020Y-115694820D01*
X137336020Y-115948820D01*
X137316020Y-115948820D01*
X137316020Y-116773070D01*
X137474770Y-116931820D01*
X137589020Y-116934892D01*
X137713502Y-116922632D01*
X137833200Y-116886322D01*
X137943514Y-116827357D01*
X138040205Y-116748005D01*
X138119557Y-116651314D01*
X138178522Y-116541000D01*
X138203337Y-116459196D01*
X138298270Y-116466820D01*
X138457020Y-116308070D01*
X138457020Y-115648820D01*
X138437020Y-115648820D01*
X138437020Y-115394820D01*
X138457020Y-115394820D01*
X138457020Y-114735570D01*
X138298270Y-114576820D01*
X138176672Y-114586585D01*
X138057142Y-114623443D01*
X137947099Y-114682912D01*
X137850773Y-114762707D01*
X137848504Y-114765498D01*
X137833200Y-114757318D01*
X137713502Y-114721008D01*
X137589020Y-114708748D01*
X137474770Y-114711820D01*
X137316020Y-114870570D01*
X137062020Y-114870570D01*
X136903270Y-114711820D01*
X136789020Y-114708748D01*
X136664538Y-114721008D01*
X136544840Y-114757318D01*
X136434526Y-114816283D01*
X136337835Y-114895635D01*
X136306610Y-114933683D01*
X136204628Y-114849989D01*
X136059736Y-114772542D01*
X135902520Y-114724851D01*
X135739020Y-114708748D01*
X135339020Y-114708748D01*
X135175520Y-114724851D01*
X135053650Y-114761820D01*
X134685679Y-114761820D01*
X134616294Y-114704877D01*
X134481775Y-114632975D01*
X134335814Y-114588698D01*
X134184020Y-114573748D01*
X134178376Y-114573748D01*
X131992117Y-112387490D01*
X132233197Y-112282806D01*
X132399053Y-111950594D01*
X132496910Y-111592408D01*
X132523009Y-111222014D01*
X132476345Y-110853645D01*
X132358714Y-110501458D01*
X132233197Y-110266634D01*
X131943225Y-110140720D01*
X130809225Y-111274720D01*
X130823368Y-111288863D01*
X130643763Y-111468468D01*
X130629620Y-111454325D01*
X130615478Y-111468468D01*
X130435873Y-111288863D01*
X130450015Y-111274720D01*
X129316015Y-110140720D01*
X129026043Y-110266634D01*
X128860187Y-110598846D01*
X128762330Y-110957032D01*
X128736231Y-111327426D01*
X128782895Y-111695795D01*
X128787221Y-111708748D01*
X128689020Y-111708748D01*
X128525520Y-111724851D01*
X128368304Y-111772542D01*
X128223412Y-111849989D01*
X128096414Y-111954214D01*
X128064020Y-111993686D01*
X128031626Y-111954214D01*
X127904628Y-111849989D01*
X127759736Y-111772542D01*
X127602520Y-111724851D01*
X127439020Y-111708748D01*
X127224020Y-111708748D01*
X127224020Y-109961115D01*
X129495620Y-109961115D01*
X130629620Y-111095115D01*
X131763620Y-109961115D01*
X131637706Y-109671143D01*
X131305494Y-109505287D01*
X130947308Y-109407430D01*
X130576914Y-109381331D01*
X130208545Y-109427995D01*
X129856358Y-109545626D01*
X129621534Y-109671143D01*
X129495620Y-109961115D01*
X127224020Y-109961115D01*
X127224020Y-108847327D01*
X127356902Y-108792286D01*
X127665638Y-108585995D01*
X127928195Y-108323438D01*
X128134486Y-108014702D01*
X128276581Y-107671654D01*
X128349020Y-107307476D01*
X128349020Y-106936164D01*
X128276581Y-106571986D01*
X128134486Y-106228938D01*
X127928195Y-105920202D01*
X127665638Y-105657645D01*
X127356902Y-105451354D01*
X127013854Y-105309259D01*
X126649676Y-105236820D01*
X126278364Y-105236820D01*
X125914186Y-105309259D01*
X125571138Y-105451354D01*
X125262402Y-105657645D01*
X124999845Y-105920202D01*
X124793554Y-106228938D01*
X124651459Y-106571986D01*
X124579020Y-106936164D01*
X124579020Y-107307476D01*
X124651459Y-107671654D01*
X124793554Y-108014702D01*
X124999845Y-108323438D01*
X125262402Y-108585995D01*
X125571138Y-108792286D01*
X125704020Y-108847328D01*
X125704021Y-111708748D01*
X125589020Y-111708748D01*
X125425520Y-111724851D01*
X125268304Y-111772542D01*
X125123412Y-111849989D01*
X125021430Y-111933683D01*
X124990205Y-111895635D01*
X124893514Y-111816283D01*
X124783200Y-111757318D01*
X124663502Y-111721008D01*
X124539020Y-111708748D01*
X124424770Y-111711820D01*
X124266022Y-111870568D01*
X124266022Y-111711820D01*
X124158486Y-111711820D01*
X124191110Y-111592408D01*
X124217209Y-111222014D01*
X124170545Y-110853645D01*
X124052914Y-110501458D01*
X123927397Y-110266634D01*
X123637425Y-110140720D01*
X122503425Y-111274720D01*
X122517568Y-111288863D01*
X122337963Y-111468468D01*
X122323820Y-111454325D01*
X122309678Y-111468468D01*
X122130073Y-111288863D01*
X122144215Y-111274720D01*
X121010215Y-110140720D01*
X120720243Y-110266634D01*
X120554387Y-110598846D01*
X120456530Y-110957032D01*
X120430431Y-111327426D01*
X120470934Y-111647160D01*
X120090043Y-111392657D01*
X119647352Y-111209288D01*
X119674976Y-111157606D01*
X119732626Y-110967561D01*
X119752092Y-110769920D01*
X119752092Y-109961115D01*
X121189820Y-109961115D01*
X122323820Y-111095115D01*
X123457820Y-109961115D01*
X123331906Y-109671143D01*
X122999694Y-109505287D01*
X122641508Y-109407430D01*
X122271114Y-109381331D01*
X121902745Y-109427995D01*
X121550558Y-109545626D01*
X121315734Y-109671143D01*
X121189820Y-109961115D01*
X119752092Y-109961115D01*
X119752092Y-107119920D01*
X119732626Y-106922279D01*
X119674976Y-106732234D01*
X119581359Y-106557087D01*
X119493643Y-106450206D01*
X119577267Y-106380933D01*
X119656176Y-106283879D01*
X119714634Y-106173296D01*
X119750395Y-106053433D01*
X119762085Y-105928897D01*
X119759020Y-105907570D01*
X119600270Y-105748820D01*
X118971020Y-105748820D01*
X118971020Y-105768820D01*
X118802092Y-105768820D01*
X118802092Y-105474820D01*
X118971020Y-105474820D01*
X118971020Y-105494820D01*
X119600270Y-105494820D01*
X119759020Y-105336070D01*
X119762085Y-105314743D01*
X119750395Y-105190207D01*
X119714634Y-105070344D01*
X119656176Y-104959761D01*
X119577267Y-104862707D01*
X119573350Y-104859462D01*
X119623794Y-104825757D01*
X119767957Y-104681594D01*
X119881225Y-104512076D01*
X119959246Y-104323718D01*
X119959861Y-104320625D01*
X121151720Y-104320625D01*
X121277634Y-104610597D01*
X121609846Y-104776453D01*
X121968032Y-104874310D01*
X122338426Y-104900409D01*
X122706795Y-104853745D01*
X123058982Y-104736114D01*
X123293806Y-104610597D01*
X123419720Y-104320625D01*
X123407020Y-104307925D01*
X129482920Y-104307925D01*
X129608834Y-104597897D01*
X129941046Y-104763753D01*
X130299232Y-104861610D01*
X130669626Y-104887709D01*
X131037995Y-104841045D01*
X131390182Y-104723414D01*
X131625006Y-104597897D01*
X131750920Y-104307925D01*
X130616920Y-103173925D01*
X129482920Y-104307925D01*
X123407020Y-104307925D01*
X122285720Y-103186625D01*
X121151720Y-104320625D01*
X119959861Y-104320625D01*
X119999020Y-104123759D01*
X119999020Y-103919881D01*
X119959246Y-103719922D01*
X119881225Y-103531564D01*
X119767957Y-103362046D01*
X119623794Y-103217883D01*
X119454276Y-103104615D01*
X119265918Y-103026594D01*
X119065959Y-102986820D01*
X118862081Y-102986820D01*
X118662122Y-103026594D01*
X118571739Y-103064032D01*
X118554628Y-103049989D01*
X118409736Y-102972542D01*
X118252520Y-102924851D01*
X118089020Y-102908748D01*
X117689020Y-102908748D01*
X117525520Y-102924851D01*
X117368304Y-102972542D01*
X117223412Y-103049989D01*
X117096414Y-103154214D01*
X117064020Y-103193686D01*
X117031626Y-103154214D01*
X116904628Y-103049989D01*
X116759736Y-102972542D01*
X116602520Y-102924851D01*
X116439020Y-102908748D01*
X116039020Y-102908748D01*
X115875520Y-102924851D01*
X115718304Y-102972542D01*
X115573412Y-103049989D01*
X115446414Y-103154214D01*
X115342189Y-103281212D01*
X115264742Y-103426104D01*
X115217051Y-103583320D01*
X115200948Y-103746820D01*
X115200948Y-104296820D01*
X115217051Y-104460320D01*
X115264742Y-104617536D01*
X115342189Y-104762428D01*
X115446414Y-104889426D01*
X115479021Y-104916186D01*
X115479021Y-104936420D01*
X115396414Y-105004214D01*
X115292189Y-105131212D01*
X115214742Y-105276104D01*
X115167051Y-105433320D01*
X115150948Y-105596820D01*
X115150948Y-105996820D01*
X115167051Y-106160320D01*
X115214742Y-106317536D01*
X115292189Y-106462428D01*
X115375883Y-106564410D01*
X115337835Y-106595635D01*
X115258483Y-106692326D01*
X115199518Y-106802640D01*
X115163208Y-106922338D01*
X115150948Y-107046820D01*
X115154020Y-107161070D01*
X115312770Y-107319820D01*
X116137020Y-107319820D01*
X116137020Y-107299820D01*
X116391020Y-107299820D01*
X116391020Y-107319820D01*
X116411020Y-107319820D01*
X116411020Y-107573820D01*
X116391020Y-107573820D01*
X116391020Y-107593820D01*
X116137020Y-107593820D01*
X116137020Y-107573820D01*
X115312770Y-107573820D01*
X115154020Y-107732570D01*
X115150948Y-107846820D01*
X115163208Y-107971302D01*
X115168599Y-107989074D01*
X115057142Y-108023443D01*
X114947099Y-108082912D01*
X114850773Y-108162707D01*
X114771864Y-108259761D01*
X114713406Y-108370344D01*
X114677645Y-108490207D01*
X114665955Y-108614743D01*
X114669020Y-108636070D01*
X114827770Y-108794820D01*
X115457020Y-108794820D01*
X115457020Y-108774820D01*
X115625948Y-108774820D01*
X115625948Y-109091820D01*
X115640898Y-109243614D01*
X115685175Y-109389575D01*
X115711020Y-109437928D01*
X115711020Y-109708070D01*
X115869770Y-109866820D01*
X115991368Y-109857055D01*
X116110898Y-109820197D01*
X116120529Y-109814992D01*
X116252226Y-109854942D01*
X116404020Y-109869892D01*
X116684020Y-109869892D01*
X116835814Y-109854942D01*
X116975948Y-109812433D01*
X116975948Y-110769920D01*
X116995414Y-110967561D01*
X117053064Y-111157606D01*
X117080688Y-111209288D01*
X116637997Y-111392657D01*
X116041183Y-111791435D01*
X115533635Y-112298983D01*
X115134857Y-112895797D01*
X114953790Y-113332931D01*
X114912506Y-113310864D01*
X114722461Y-113253214D01*
X114524820Y-113233748D01*
X110874820Y-113233748D01*
X110677179Y-113253214D01*
X110487134Y-113310864D01*
X110457766Y-113326562D01*
X110334486Y-113028938D01*
X110128195Y-112720202D01*
X109865638Y-112457645D01*
X109556902Y-112251354D01*
X109213854Y-112109259D01*
X108849676Y-112036820D01*
X108478364Y-112036820D01*
X108114186Y-112109259D01*
X107771138Y-112251354D01*
X107462402Y-112457645D01*
X107199845Y-112720202D01*
X106993554Y-113028938D01*
X106851459Y-113371986D01*
X106779020Y-113736164D01*
X106779020Y-114107476D01*
X106851459Y-114471654D01*
X106993554Y-114814702D01*
X107199845Y-115123438D01*
X107462402Y-115385995D01*
X107616424Y-115488909D01*
X107564020Y-115483748D01*
X106164020Y-115483748D01*
X106039538Y-115496008D01*
X105919840Y-115532318D01*
X105809526Y-115591283D01*
X105712835Y-115670635D01*
X105633483Y-115767326D01*
X105582974Y-115861820D01*
X105002128Y-115861820D01*
X104930527Y-115790219D01*
X105220497Y-115664306D01*
X105386353Y-115332094D01*
X105484210Y-114973908D01*
X105510309Y-114603514D01*
X105463645Y-114235145D01*
X105346014Y-113882958D01*
X105220497Y-113648134D01*
X104930525Y-113522220D01*
X103796525Y-114656220D01*
X103810668Y-114670363D01*
X103631063Y-114849968D01*
X103616920Y-114835825D01*
X103602778Y-114849968D01*
X103423173Y-114670363D01*
X103437315Y-114656220D01*
X102303315Y-113522220D01*
X102122115Y-113600902D01*
X102076581Y-113371986D01*
X102064416Y-113342615D01*
X102482920Y-113342615D01*
X103616920Y-114476615D01*
X104750920Y-113342615D01*
X104625006Y-113052643D01*
X104292794Y-112886787D01*
X103934608Y-112788930D01*
X103564214Y-112762831D01*
X103195845Y-112809495D01*
X102843658Y-112927126D01*
X102608834Y-113052643D01*
X102482920Y-113342615D01*
X102064416Y-113342615D01*
X101934486Y-113028938D01*
X101728195Y-112720202D01*
X101465638Y-112457645D01*
X101156902Y-112251354D01*
X100813854Y-112109259D01*
X100449676Y-112036820D01*
X100078364Y-112036820D01*
X99714186Y-112109259D01*
X99371138Y-112251354D01*
X99062402Y-112457645D01*
X98799845Y-112720202D01*
X98593554Y-113028938D01*
X98521022Y-113204046D01*
X98513023Y-113122834D01*
X98469566Y-112979573D01*
X98398994Y-112847544D01*
X98304021Y-112731819D01*
X98275024Y-112708022D01*
X97171539Y-111604537D01*
X97226581Y-111471654D01*
X97299020Y-111107476D01*
X97299020Y-110736164D01*
X97226581Y-110371986D01*
X97084486Y-110028938D01*
X96878195Y-109720202D01*
X96615638Y-109457645D01*
X96306902Y-109251354D01*
X96252686Y-109228897D01*
X114665955Y-109228897D01*
X114677645Y-109353433D01*
X114713406Y-109473296D01*
X114771864Y-109583879D01*
X114850773Y-109680933D01*
X114947099Y-109760728D01*
X115057142Y-109820197D01*
X115176672Y-109857055D01*
X115298270Y-109866820D01*
X115457020Y-109708070D01*
X115457020Y-109048820D01*
X114827770Y-109048820D01*
X114669020Y-109207570D01*
X114665955Y-109228897D01*
X96252686Y-109228897D01*
X95963854Y-109109259D01*
X95599676Y-109036820D01*
X95228364Y-109036820D01*
X94864186Y-109109259D01*
X94541106Y-109243083D01*
X94539447Y-104235425D01*
X99130020Y-104235425D01*
X99255934Y-104525397D01*
X99588146Y-104691253D01*
X99946332Y-104789110D01*
X100316726Y-104815209D01*
X100685095Y-104768545D01*
X101037282Y-104650914D01*
X101272106Y-104525397D01*
X101398020Y-104235425D01*
X107530020Y-104235425D01*
X107655934Y-104525397D01*
X107988146Y-104691253D01*
X108346332Y-104789110D01*
X108716726Y-104815209D01*
X109085095Y-104768545D01*
X109437282Y-104650914D01*
X109672106Y-104525397D01*
X109798020Y-104235425D01*
X108664020Y-103101425D01*
X107530020Y-104235425D01*
X101398020Y-104235425D01*
X100264020Y-103101425D01*
X99130020Y-104235425D01*
X94539447Y-104235425D01*
X94538739Y-102102337D01*
X98566595Y-102101712D01*
X98494587Y-102245946D01*
X98396730Y-102604132D01*
X98370631Y-102974526D01*
X98417295Y-103342895D01*
X98534926Y-103695082D01*
X98660443Y-103929906D01*
X98950415Y-104055820D01*
X100084415Y-102921820D01*
X100070273Y-102907678D01*
X100249878Y-102728073D01*
X100264020Y-102742215D01*
X100278163Y-102728073D01*
X100457768Y-102907678D01*
X100443625Y-102921820D01*
X101577625Y-104055820D01*
X101867597Y-103929906D01*
X102033453Y-103597694D01*
X102131310Y-103239508D01*
X102157409Y-102869114D01*
X102110745Y-102500745D01*
X101993114Y-102148558D01*
X101967792Y-102101184D01*
X106967247Y-102100408D01*
X106894587Y-102245946D01*
X106796730Y-102604132D01*
X106770631Y-102974526D01*
X106817295Y-103342895D01*
X106934926Y-103695082D01*
X107060443Y-103929906D01*
X107350415Y-104055820D01*
X108484415Y-102921820D01*
X108470273Y-102907678D01*
X108649878Y-102728073D01*
X108664020Y-102742215D01*
X108678163Y-102728073D01*
X108857768Y-102907678D01*
X108843625Y-102921820D01*
X109977625Y-104055820D01*
X110267597Y-103929906D01*
X110433453Y-103597694D01*
X110531310Y-103239508D01*
X110557409Y-102869114D01*
X110510745Y-102500745D01*
X110393114Y-102148558D01*
X110367095Y-102099880D01*
X120632542Y-102098286D01*
X120516287Y-102331146D01*
X120418430Y-102689332D01*
X120392331Y-103059726D01*
X120438995Y-103428095D01*
X120556626Y-103780282D01*
X120682143Y-104015106D01*
X120972115Y-104141020D01*
X122106115Y-103007020D01*
X122091973Y-102992878D01*
X122271578Y-102813273D01*
X122285720Y-102827415D01*
X122299863Y-102813273D01*
X122479468Y-102992878D01*
X122465325Y-103007020D01*
X123599325Y-104141020D01*
X123889297Y-104015106D01*
X124055153Y-103682894D01*
X124153010Y-103324708D01*
X124179109Y-102954314D01*
X124132445Y-102585945D01*
X124014814Y-102233758D01*
X123942127Y-102097772D01*
X128958047Y-102096993D01*
X128847487Y-102318446D01*
X128749630Y-102676632D01*
X128723531Y-103047026D01*
X128770195Y-103415395D01*
X128887826Y-103767582D01*
X129013343Y-104002406D01*
X129303315Y-104128320D01*
X130437315Y-102994320D01*
X130423173Y-102980178D01*
X130602778Y-102800573D01*
X130616920Y-102814715D01*
X130631063Y-102800573D01*
X130810668Y-102980178D01*
X130796525Y-102994320D01*
X131930525Y-104128320D01*
X132220497Y-104002406D01*
X132386353Y-103670194D01*
X132484210Y-103312008D01*
X132510309Y-102941614D01*
X132463645Y-102573245D01*
X132346014Y-102221058D01*
X132279424Y-102096477D01*
X133694847Y-102096257D01*
X133591852Y-102344908D01*
X133529020Y-102660787D01*
X133529020Y-106982853D01*
X133591852Y-107298732D01*
X133715102Y-107596283D01*
X133894033Y-107864072D01*
X134121768Y-108091807D01*
X134279020Y-108196880D01*
X134279020Y-108414657D01*
X134165765Y-108425812D01*
X133999169Y-108476348D01*
X133845633Y-108558415D01*
X133711058Y-108668858D01*
X133600615Y-108803433D01*
X133518548Y-108956969D01*
X133468012Y-109123565D01*
X133450948Y-109296819D01*
X133450948Y-112146821D01*
X133468012Y-112320075D01*
X133518548Y-112486671D01*
X133600615Y-112640207D01*
X133711058Y-112774782D01*
X133845633Y-112885225D01*
X133999169Y-112967292D01*
X134165765Y-113017828D01*
X134339019Y-113034892D01*
X135064021Y-113034892D01*
X135237275Y-113017828D01*
X135403871Y-112967292D01*
X135557407Y-112885225D01*
X135691982Y-112774782D01*
X135802425Y-112640207D01*
X135884492Y-112486671D01*
X135935028Y-112320075D01*
X135952092Y-112146821D01*
X135952092Y-110662340D01*
X135985609Y-110599633D01*
X136036215Y-110432810D01*
X136049020Y-110302797D01*
X136049020Y-110302789D01*
X136053301Y-110259320D01*
X136049020Y-110215851D01*
X136049020Y-108196879D01*
X136206272Y-108091807D01*
X136434007Y-107864072D01*
X136612938Y-107596283D01*
X136736188Y-107298732D01*
X136799020Y-106982853D01*
X136799020Y-104371820D01*
X136825948Y-104371820D01*
X136838208Y-104496302D01*
X136874518Y-104616000D01*
X136933483Y-104726314D01*
X137012835Y-104823005D01*
X137109526Y-104902357D01*
X137219840Y-104961322D01*
X137339538Y-104997632D01*
X137464020Y-105009892D01*
X138078270Y-105006820D01*
X138237020Y-104848070D01*
X138237020Y-103248820D01*
X138491020Y-103248820D01*
X138491020Y-104848070D01*
X138649770Y-105006820D01*
X139264020Y-105009892D01*
X139388502Y-104997632D01*
X139508200Y-104961322D01*
X139618514Y-104902357D01*
X139715205Y-104823005D01*
X139794557Y-104726314D01*
X139853522Y-104616000D01*
X139889832Y-104496302D01*
X139902092Y-104371820D01*
X139899020Y-103407570D01*
X139740270Y-103248820D01*
X138491020Y-103248820D01*
X138237020Y-103248820D01*
X136987770Y-103248820D01*
X136829020Y-103407570D01*
X136825948Y-104371820D01*
X136799020Y-104371820D01*
X136799020Y-102660787D01*
X136736188Y-102344908D01*
X136633004Y-102095801D01*
X136826661Y-102095771D01*
X136829020Y-102836070D01*
X136987770Y-102994820D01*
X138237020Y-102994820D01*
X138237020Y-102974820D01*
X138491020Y-102974820D01*
X138491020Y-102994820D01*
X139740270Y-102994820D01*
X139899020Y-102836070D01*
X139901380Y-102095293D01*
X140095258Y-102095263D01*
X139991852Y-102344908D01*
G37*
%TD.AperFunction*%
D18*
X124266020Y-112694820D02*
X124286020Y-112694820D01*
X124286020Y-112948820D01*
X124266020Y-112948820D01*
X124266020Y-112968820D01*
X124012020Y-112968820D01*
X124012020Y-112948820D01*
X123992020Y-112948820D01*
X123992020Y-112694820D01*
X124012020Y-112694820D01*
X124012020Y-112674820D01*
X124266020Y-112674820D01*
X124266020Y-112694820D01*
%TA.AperFunction,Conductor*%
D19*
G36*
X124266020Y-112694820D02*
G01*
X124286020Y-112694820D01*
X124286020Y-112948820D01*
X124266020Y-112948820D01*
X124266020Y-112968820D01*
X124012020Y-112968820D01*
X124012020Y-112948820D01*
X123992020Y-112948820D01*
X123992020Y-112694820D01*
X124012020Y-112694820D01*
X124012020Y-112674820D01*
X124266020Y-112674820D01*
X124266020Y-112694820D01*
G37*
%TD.AperFunction*%
%TD*%
M02*
