%TF.GenerationSoftware,KiCad,Pcbnew,(5.1.9-13-g2d491f9cbd)-1*%
%TF.CreationDate,2021-02-20T16:02:13+01:00*%
%TF.ProjectId,Ant_Amp,416e745f-416d-4702-9e6b-696361645f70,rev?*%
%TF.SameCoordinates,Original*%
%TF.FileFunction,Copper,L2,Bot*%
%TF.FilePolarity,Positive*%
%FSLAX46Y46*%
G04 Gerber Fmt 4.6, Leading zero omitted, Abs format (unit mm)*
G04 Created by KiCad (PCBNEW (5.1.9-13-g2d491f9cbd)-1) date 2021-02-20 16:02:13*
%MOMM*%
%LPD*%
G01*
G04 APERTURE LIST*
%TA.AperFunction,ComponentPad*%
%ADD10C,2.500000*%
%TD*%
%TA.AperFunction,ViaPad*%
%ADD11C,0.800000*%
%TD*%
%TA.AperFunction,Conductor*%
%ADD12C,0.250000*%
%TD*%
%TA.AperFunction,Conductor*%
%ADD13C,0.254000*%
%TD*%
%TA.AperFunction,Conductor*%
%ADD14C,0.100000*%
%TD*%
G04 APERTURE END LIST*
D10*
%TO.P,L1,3*%
%TO.N,Net-(AE1-Pad1)*%
X95414020Y-110921820D03*
%TO.P,L1,1*%
%TO.N,Net-(CT1-Pad1)*%
X100264020Y-113921820D03*
%TO.P,L1,2*%
%TO.N,GND*%
X100264020Y-102921820D03*
%TD*%
%TO.P,J1,2*%
%TO.N,GND*%
X130629620Y-111274720D03*
X130616920Y-102994320D03*
X122285720Y-103007020D03*
X122323820Y-111274720D03*
%TO.P,J1,1*%
%TO.N,Net-(J1-Pad1)*%
X126464020Y-107121820D03*
%TD*%
%TO.P,AE1,2*%
%TO.N,GND*%
X103616920Y-114656220D03*
X95336520Y-114668920D03*
X95349220Y-123000120D03*
X103616920Y-122962020D03*
%TO.P,AE1,1*%
%TO.N,Net-(AE1-Pad1)*%
X99464020Y-118821820D03*
%TD*%
%TO.P,L2,1*%
%TO.N,GND*%
X108664020Y-102921820D03*
%TO.P,L2,2*%
%TO.N,Net-(CT2-Pad1)*%
X108664020Y-113921820D03*
%TD*%
%TO.P,L3,1*%
%TO.N,Net-(CT3-Pad1)*%
X127364020Y-119921820D03*
%TO.P,L3,2*%
%TO.N,Net-(C4-Pad2)*%
X138364020Y-119921820D03*
%TO.P,L3,3*%
%TO.N,Net-(C3-Pad2)*%
X131014020Y-114721820D03*
%TD*%
D11*
%TO.N,GND*%
X101264020Y-108621820D03*
X106264020Y-108621820D03*
X96264020Y-103621820D03*
X103764020Y-103621820D03*
X96264020Y-108621820D03*
X111264020Y-108621820D03*
X111264020Y-118621820D03*
X111264020Y-123621820D03*
X106264020Y-123621820D03*
X106264020Y-118621820D03*
X103764020Y-118621820D03*
X96264020Y-118621820D03*
X98764020Y-123621820D03*
X108764020Y-106121820D03*
X108764020Y-111121820D03*
X98764020Y-106121820D03*
X98764020Y-111121820D03*
X113764020Y-111121820D03*
X113764020Y-106121820D03*
X113764020Y-118621820D03*
X113764020Y-123621820D03*
X118764020Y-123621820D03*
X123764020Y-123621820D03*
X128764020Y-123621820D03*
X133764020Y-123621820D03*
X138764020Y-123621820D03*
X141264020Y-121121820D03*
X136264020Y-121121820D03*
X131264020Y-121121820D03*
X121264020Y-121121820D03*
X133764020Y-118621820D03*
X126264020Y-116121820D03*
X121264020Y-108621820D03*
X123764020Y-106121820D03*
X126264020Y-103621820D03*
X128764020Y-106121820D03*
X131264020Y-108621820D03*
X133764020Y-108621820D03*
X133764020Y-113621820D03*
X138764020Y-113621820D03*
X141264020Y-113621820D03*
X137664020Y-110721820D03*
X138364020Y-105121820D03*
X121264020Y-118621820D03*
X123764020Y-118621820D03*
X128064020Y-111121820D03*
X129864020Y-117621820D03*
X103764020Y-111121820D03*
%TO.N,Net-(C4-Pad2)*%
X118964020Y-104021820D03*
%TD*%
D12*
%TO.N,Net-(C4-Pad2)*%
X134864020Y-116421820D02*
X138364020Y-119921820D01*
X118964020Y-104021820D02*
X128264020Y-113321820D01*
X128264020Y-115221820D02*
X129464020Y-116421820D01*
X129464020Y-116421820D02*
X134864020Y-116421820D01*
X128264020Y-113321820D02*
X128264020Y-115221820D01*
%TD*%
D13*
%TO.N,GND*%
X142303801Y-123761889D02*
X105322538Y-123765717D01*
X105386353Y-123637894D01*
X105484210Y-123279708D01*
X105510309Y-122909314D01*
X105463645Y-122540945D01*
X105346014Y-122188758D01*
X105220497Y-121953934D01*
X104930525Y-121828020D01*
X103796525Y-122962020D01*
X103810668Y-122976163D01*
X103631063Y-123155768D01*
X103616920Y-123141625D01*
X103602778Y-123155768D01*
X103423173Y-122976163D01*
X103437315Y-122962020D01*
X102303315Y-121828020D01*
X102013343Y-121953934D01*
X101847487Y-122286146D01*
X101749630Y-122644332D01*
X101723531Y-123014726D01*
X101770195Y-123383095D01*
X101887826Y-123735282D01*
X101904283Y-123766071D01*
X97073433Y-123766571D01*
X97118653Y-123675994D01*
X97216510Y-123317808D01*
X97242609Y-122947414D01*
X97195945Y-122579045D01*
X97078314Y-122226858D01*
X96952797Y-121992034D01*
X96662825Y-121866120D01*
X95528825Y-123000120D01*
X95542968Y-123014263D01*
X95363363Y-123193868D01*
X95349220Y-123179725D01*
X95335078Y-123193868D01*
X95155473Y-123014263D01*
X95169615Y-123000120D01*
X95155473Y-122985978D01*
X95335078Y-122806373D01*
X95349220Y-122820515D01*
X96483220Y-121686515D01*
X96466676Y-121648415D01*
X102482920Y-121648415D01*
X103616920Y-122782415D01*
X104750920Y-121648415D01*
X104625006Y-121358443D01*
X104292794Y-121192587D01*
X103934608Y-121094730D01*
X103564214Y-121068631D01*
X103195845Y-121115295D01*
X102843658Y-121232926D01*
X102608834Y-121358443D01*
X102482920Y-121648415D01*
X96466676Y-121648415D01*
X96357306Y-121396543D01*
X96025094Y-121230687D01*
X95666908Y-121132830D01*
X95296514Y-121106731D01*
X94928145Y-121153395D01*
X94575958Y-121271026D01*
X94545099Y-121287521D01*
X94544221Y-118636164D01*
X97579020Y-118636164D01*
X97579020Y-119007476D01*
X97651459Y-119371654D01*
X97793554Y-119714702D01*
X97999845Y-120023438D01*
X98262402Y-120285995D01*
X98571138Y-120492286D01*
X98914186Y-120634381D01*
X99278364Y-120706820D01*
X99649676Y-120706820D01*
X100013854Y-120634381D01*
X100356902Y-120492286D01*
X100665638Y-120285995D01*
X100928195Y-120023438D01*
X101120145Y-119736164D01*
X125479020Y-119736164D01*
X125479020Y-120107476D01*
X125551459Y-120471654D01*
X125693554Y-120814702D01*
X125899845Y-121123438D01*
X126162402Y-121385995D01*
X126471138Y-121592286D01*
X126814186Y-121734381D01*
X127178364Y-121806820D01*
X127549676Y-121806820D01*
X127913854Y-121734381D01*
X128256902Y-121592286D01*
X128565638Y-121385995D01*
X128828195Y-121123438D01*
X129034486Y-120814702D01*
X129176581Y-120471654D01*
X129249020Y-120107476D01*
X129249020Y-119736164D01*
X129176581Y-119371986D01*
X129034486Y-119028938D01*
X128828195Y-118720202D01*
X128565638Y-118457645D01*
X128256902Y-118251354D01*
X127913854Y-118109259D01*
X127549676Y-118036820D01*
X127178364Y-118036820D01*
X126814186Y-118109259D01*
X126471138Y-118251354D01*
X126162402Y-118457645D01*
X125899845Y-118720202D01*
X125693554Y-119028938D01*
X125551459Y-119371986D01*
X125479020Y-119736164D01*
X101120145Y-119736164D01*
X101134486Y-119714702D01*
X101276581Y-119371654D01*
X101349020Y-119007476D01*
X101349020Y-118636164D01*
X101276581Y-118271986D01*
X101134486Y-117928938D01*
X100928195Y-117620202D01*
X100665638Y-117357645D01*
X100356902Y-117151354D01*
X100013854Y-117009259D01*
X99649676Y-116936820D01*
X99278364Y-116936820D01*
X98914186Y-117009259D01*
X98571138Y-117151354D01*
X98262402Y-117357645D01*
X97999845Y-117620202D01*
X97793554Y-117928938D01*
X97651459Y-118271986D01*
X97579020Y-118636164D01*
X94544221Y-118636164D01*
X94543472Y-116379854D01*
X94660646Y-116438353D01*
X95018832Y-116536210D01*
X95389226Y-116562309D01*
X95757595Y-116515645D01*
X96109782Y-116398014D01*
X96344606Y-116272497D01*
X96470520Y-115982525D01*
X96457820Y-115969825D01*
X102482920Y-115969825D01*
X102608834Y-116259797D01*
X102941046Y-116425653D01*
X103299232Y-116523510D01*
X103669626Y-116549609D01*
X104037995Y-116502945D01*
X104390182Y-116385314D01*
X104625006Y-116259797D01*
X104750920Y-115969825D01*
X103616920Y-114835825D01*
X102482920Y-115969825D01*
X96457820Y-115969825D01*
X95336520Y-114848525D01*
X95322378Y-114862668D01*
X95142773Y-114683063D01*
X95156915Y-114668920D01*
X95516125Y-114668920D01*
X96650125Y-115802920D01*
X96940097Y-115677006D01*
X97105953Y-115344794D01*
X97203810Y-114986608D01*
X97229909Y-114616214D01*
X97183245Y-114247845D01*
X97065614Y-113895658D01*
X96980363Y-113736164D01*
X98379020Y-113736164D01*
X98379020Y-114107476D01*
X98451459Y-114471654D01*
X98593554Y-114814702D01*
X98799845Y-115123438D01*
X99062402Y-115385995D01*
X99371138Y-115592286D01*
X99714186Y-115734381D01*
X100078364Y-115806820D01*
X100449676Y-115806820D01*
X100813854Y-115734381D01*
X101156902Y-115592286D01*
X101465638Y-115385995D01*
X101728195Y-115123438D01*
X101768415Y-115063244D01*
X101770195Y-115077295D01*
X101887826Y-115429482D01*
X102013343Y-115664306D01*
X102303315Y-115790220D01*
X103437315Y-114656220D01*
X103796525Y-114656220D01*
X104930525Y-115790220D01*
X105220497Y-115664306D01*
X105386353Y-115332094D01*
X105484210Y-114973908D01*
X105510309Y-114603514D01*
X105463645Y-114235145D01*
X105346014Y-113882958D01*
X105267551Y-113736164D01*
X106779020Y-113736164D01*
X106779020Y-114107476D01*
X106851459Y-114471654D01*
X106993554Y-114814702D01*
X107199845Y-115123438D01*
X107462402Y-115385995D01*
X107771138Y-115592286D01*
X108114186Y-115734381D01*
X108478364Y-115806820D01*
X108849676Y-115806820D01*
X109213854Y-115734381D01*
X109556902Y-115592286D01*
X109865638Y-115385995D01*
X110128195Y-115123438D01*
X110334486Y-114814702D01*
X110476581Y-114471654D01*
X110518098Y-114262929D01*
X114720142Y-114262929D01*
X114720142Y-114980711D01*
X114860174Y-115684700D01*
X115134857Y-116347843D01*
X115533635Y-116944657D01*
X116041183Y-117452205D01*
X116637997Y-117850983D01*
X117301140Y-118125666D01*
X118005129Y-118265698D01*
X118722911Y-118265698D01*
X119426900Y-118125666D01*
X120090043Y-117850983D01*
X120686857Y-117452205D01*
X121194405Y-116944657D01*
X121593183Y-116347843D01*
X121867866Y-115684700D01*
X122007898Y-114980711D01*
X122007898Y-114262929D01*
X121867866Y-113558940D01*
X121655488Y-113046213D01*
X122006132Y-113142010D01*
X122376526Y-113168109D01*
X122744895Y-113121445D01*
X123097082Y-113003814D01*
X123331906Y-112878297D01*
X123457820Y-112588325D01*
X122323820Y-111454325D01*
X122309678Y-111468468D01*
X122130073Y-111288863D01*
X122144215Y-111274720D01*
X122503425Y-111274720D01*
X123637425Y-112408720D01*
X123927397Y-112282806D01*
X124093253Y-111950594D01*
X124191110Y-111592408D01*
X124217209Y-111222014D01*
X124170545Y-110853645D01*
X124052914Y-110501458D01*
X123927397Y-110266634D01*
X123637425Y-110140720D01*
X122503425Y-111274720D01*
X122144215Y-111274720D01*
X121010215Y-110140720D01*
X120720243Y-110266634D01*
X120554387Y-110598846D01*
X120456530Y-110957032D01*
X120430431Y-111327426D01*
X120470934Y-111647160D01*
X120090043Y-111392657D01*
X119426900Y-111117974D01*
X118722911Y-110977942D01*
X118005129Y-110977942D01*
X117301140Y-111117974D01*
X116637997Y-111392657D01*
X116041183Y-111791435D01*
X115533635Y-112298983D01*
X115134857Y-112895797D01*
X114860174Y-113558940D01*
X114720142Y-114262929D01*
X110518098Y-114262929D01*
X110549020Y-114107476D01*
X110549020Y-113736164D01*
X110476581Y-113371986D01*
X110334486Y-113028938D01*
X110128195Y-112720202D01*
X109865638Y-112457645D01*
X109556902Y-112251354D01*
X109213854Y-112109259D01*
X108849676Y-112036820D01*
X108478364Y-112036820D01*
X108114186Y-112109259D01*
X107771138Y-112251354D01*
X107462402Y-112457645D01*
X107199845Y-112720202D01*
X106993554Y-113028938D01*
X106851459Y-113371986D01*
X106779020Y-113736164D01*
X105267551Y-113736164D01*
X105220497Y-113648134D01*
X104930525Y-113522220D01*
X103796525Y-114656220D01*
X103437315Y-114656220D01*
X102303315Y-113522220D01*
X102122115Y-113600902D01*
X102076581Y-113371986D01*
X102064416Y-113342615D01*
X102482920Y-113342615D01*
X103616920Y-114476615D01*
X104750920Y-113342615D01*
X104625006Y-113052643D01*
X104292794Y-112886787D01*
X103934608Y-112788930D01*
X103564214Y-112762831D01*
X103195845Y-112809495D01*
X102843658Y-112927126D01*
X102608834Y-113052643D01*
X102482920Y-113342615D01*
X102064416Y-113342615D01*
X101934486Y-113028938D01*
X101728195Y-112720202D01*
X101465638Y-112457645D01*
X101156902Y-112251354D01*
X100813854Y-112109259D01*
X100449676Y-112036820D01*
X100078364Y-112036820D01*
X99714186Y-112109259D01*
X99371138Y-112251354D01*
X99062402Y-112457645D01*
X98799845Y-112720202D01*
X98593554Y-113028938D01*
X98451459Y-113371986D01*
X98379020Y-113736164D01*
X96980363Y-113736164D01*
X96940097Y-113660834D01*
X96650125Y-113534920D01*
X95516125Y-114668920D01*
X95156915Y-114668920D01*
X95142773Y-114654778D01*
X95322378Y-114475173D01*
X95336520Y-114489315D01*
X96470520Y-113355315D01*
X96344606Y-113065343D01*
X96012394Y-112899487D01*
X95654208Y-112801630D01*
X95633207Y-112800150D01*
X95963854Y-112734381D01*
X96306902Y-112592286D01*
X96615638Y-112385995D01*
X96878195Y-112123438D01*
X97084486Y-111814702D01*
X97226581Y-111471654D01*
X97299020Y-111107476D01*
X97299020Y-110736164D01*
X97226581Y-110371986D01*
X97084486Y-110028938D01*
X97039169Y-109961115D01*
X121189820Y-109961115D01*
X122323820Y-111095115D01*
X123457820Y-109961115D01*
X123331906Y-109671143D01*
X122999694Y-109505287D01*
X122641508Y-109407430D01*
X122271114Y-109381331D01*
X121902745Y-109427995D01*
X121550558Y-109545626D01*
X121315734Y-109671143D01*
X121189820Y-109961115D01*
X97039169Y-109961115D01*
X96878195Y-109720202D01*
X96615638Y-109457645D01*
X96306902Y-109251354D01*
X95963854Y-109109259D01*
X95599676Y-109036820D01*
X95228364Y-109036820D01*
X94864186Y-109109259D01*
X94541106Y-109243083D01*
X94539447Y-104235425D01*
X99130020Y-104235425D01*
X99255934Y-104525397D01*
X99588146Y-104691253D01*
X99946332Y-104789110D01*
X100316726Y-104815209D01*
X100685095Y-104768545D01*
X101037282Y-104650914D01*
X101272106Y-104525397D01*
X101398020Y-104235425D01*
X107530020Y-104235425D01*
X107655934Y-104525397D01*
X107988146Y-104691253D01*
X108346332Y-104789110D01*
X108716726Y-104815209D01*
X109085095Y-104768545D01*
X109437282Y-104650914D01*
X109672106Y-104525397D01*
X109798020Y-104235425D01*
X108664020Y-103101425D01*
X107530020Y-104235425D01*
X101398020Y-104235425D01*
X100264020Y-103101425D01*
X99130020Y-104235425D01*
X94539447Y-104235425D01*
X94538739Y-102102337D01*
X98566595Y-102101712D01*
X98494587Y-102245946D01*
X98396730Y-102604132D01*
X98370631Y-102974526D01*
X98417295Y-103342895D01*
X98534926Y-103695082D01*
X98660443Y-103929906D01*
X98950415Y-104055820D01*
X100084415Y-102921820D01*
X100070273Y-102907678D01*
X100249878Y-102728073D01*
X100264020Y-102742215D01*
X100278163Y-102728073D01*
X100457768Y-102907678D01*
X100443625Y-102921820D01*
X101577625Y-104055820D01*
X101867597Y-103929906D01*
X102033453Y-103597694D01*
X102131310Y-103239508D01*
X102157409Y-102869114D01*
X102110745Y-102500745D01*
X101993114Y-102148558D01*
X101967792Y-102101184D01*
X106967247Y-102100408D01*
X106894587Y-102245946D01*
X106796730Y-102604132D01*
X106770631Y-102974526D01*
X106817295Y-103342895D01*
X106934926Y-103695082D01*
X107060443Y-103929906D01*
X107350415Y-104055820D01*
X108484415Y-102921820D01*
X108470273Y-102907678D01*
X108649878Y-102728073D01*
X108664020Y-102742215D01*
X108678163Y-102728073D01*
X108857768Y-102907678D01*
X108843625Y-102921820D01*
X109977625Y-104055820D01*
X110267597Y-103929906D01*
X110272601Y-103919881D01*
X117929020Y-103919881D01*
X117929020Y-104123759D01*
X117968794Y-104323718D01*
X118046815Y-104512076D01*
X118160083Y-104681594D01*
X118304246Y-104825757D01*
X118473764Y-104939025D01*
X118662122Y-105017046D01*
X118862081Y-105056820D01*
X118924219Y-105056820D01*
X127504020Y-113636622D01*
X127504021Y-115184488D01*
X127500344Y-115221820D01*
X127504021Y-115259153D01*
X127515018Y-115370806D01*
X127528200Y-115414262D01*
X127558474Y-115514066D01*
X127629046Y-115646096D01*
X127700221Y-115732822D01*
X127724020Y-115761821D01*
X127753018Y-115785619D01*
X128900220Y-116932822D01*
X128924019Y-116961821D01*
X129039744Y-117056794D01*
X129171773Y-117127366D01*
X129315034Y-117170823D01*
X129426687Y-117181820D01*
X129426696Y-117181820D01*
X129464019Y-117185496D01*
X129501342Y-117181820D01*
X134549219Y-117181820D01*
X136606501Y-119239103D01*
X136551459Y-119371986D01*
X136479020Y-119736164D01*
X136479020Y-120107476D01*
X136551459Y-120471654D01*
X136693554Y-120814702D01*
X136899845Y-121123438D01*
X137162402Y-121385995D01*
X137471138Y-121592286D01*
X137814186Y-121734381D01*
X138178364Y-121806820D01*
X138549676Y-121806820D01*
X138913854Y-121734381D01*
X139256902Y-121592286D01*
X139565638Y-121385995D01*
X139828195Y-121123438D01*
X140034486Y-120814702D01*
X140176581Y-120471654D01*
X140249020Y-120107476D01*
X140249020Y-119736164D01*
X140176581Y-119371986D01*
X140034486Y-119028938D01*
X139828195Y-118720202D01*
X139565638Y-118457645D01*
X139256902Y-118251354D01*
X138913854Y-118109259D01*
X138549676Y-118036820D01*
X138178364Y-118036820D01*
X137814186Y-118109259D01*
X137681303Y-118164301D01*
X135427824Y-115910823D01*
X135404021Y-115881819D01*
X135288296Y-115786846D01*
X135156267Y-115716274D01*
X135013006Y-115672817D01*
X134901353Y-115661820D01*
X134901342Y-115661820D01*
X134864020Y-115658144D01*
X134826698Y-115661820D01*
X132653003Y-115661820D01*
X132684486Y-115614702D01*
X132826581Y-115271654D01*
X132899020Y-114907476D01*
X132899020Y-114536164D01*
X132826581Y-114171986D01*
X132684486Y-113828938D01*
X132478195Y-113520202D01*
X132215638Y-113257645D01*
X131906902Y-113051354D01*
X131572827Y-112912976D01*
X131637706Y-112878297D01*
X131763620Y-112588325D01*
X130629620Y-111454325D01*
X129495620Y-112588325D01*
X129621534Y-112878297D01*
X129953746Y-113044153D01*
X130080208Y-113078703D01*
X129812402Y-113257645D01*
X129549845Y-113520202D01*
X129343554Y-113828938D01*
X129201459Y-114171986D01*
X129129020Y-114536164D01*
X129129020Y-114907476D01*
X129154978Y-115037977D01*
X129024020Y-114907019D01*
X129024020Y-113359142D01*
X129027696Y-113321819D01*
X129024020Y-113284496D01*
X129024020Y-113284487D01*
X129013023Y-113172834D01*
X128969566Y-113029573D01*
X128921595Y-112939826D01*
X128898994Y-112897543D01*
X128827819Y-112810817D01*
X128804021Y-112781819D01*
X128775024Y-112758022D01*
X127344428Y-111327426D01*
X128736231Y-111327426D01*
X128782895Y-111695795D01*
X128900526Y-112047982D01*
X129026043Y-112282806D01*
X129316015Y-112408720D01*
X130450015Y-111274720D01*
X130809225Y-111274720D01*
X131943225Y-112408720D01*
X132233197Y-112282806D01*
X132399053Y-111950594D01*
X132496910Y-111592408D01*
X132523009Y-111222014D01*
X132476345Y-110853645D01*
X132358714Y-110501458D01*
X132233197Y-110266634D01*
X131943225Y-110140720D01*
X130809225Y-111274720D01*
X130450015Y-111274720D01*
X129316015Y-110140720D01*
X129026043Y-110266634D01*
X128860187Y-110598846D01*
X128762330Y-110957032D01*
X128736231Y-111327426D01*
X127344428Y-111327426D01*
X125978117Y-109961115D01*
X129495620Y-109961115D01*
X130629620Y-111095115D01*
X131763620Y-109961115D01*
X131637706Y-109671143D01*
X131305494Y-109505287D01*
X130947308Y-109407430D01*
X130576914Y-109381331D01*
X130208545Y-109427995D01*
X129856358Y-109545626D01*
X129621534Y-109671143D01*
X129495620Y-109961115D01*
X125978117Y-109961115D01*
X122953166Y-106936164D01*
X124579020Y-106936164D01*
X124579020Y-107307476D01*
X124651459Y-107671654D01*
X124793554Y-108014702D01*
X124999845Y-108323438D01*
X125262402Y-108585995D01*
X125571138Y-108792286D01*
X125914186Y-108934381D01*
X126278364Y-109006820D01*
X126649676Y-109006820D01*
X127013854Y-108934381D01*
X127356902Y-108792286D01*
X127665638Y-108585995D01*
X127928195Y-108323438D01*
X128134486Y-108014702D01*
X128276581Y-107671654D01*
X128349020Y-107307476D01*
X128349020Y-106936164D01*
X128276581Y-106571986D01*
X128134486Y-106228938D01*
X127928195Y-105920202D01*
X127665638Y-105657645D01*
X127356902Y-105451354D01*
X127013854Y-105309259D01*
X126649676Y-105236820D01*
X126278364Y-105236820D01*
X125914186Y-105309259D01*
X125571138Y-105451354D01*
X125262402Y-105657645D01*
X124999845Y-105920202D01*
X124793554Y-106228938D01*
X124651459Y-106571986D01*
X124579020Y-106936164D01*
X122953166Y-106936164D01*
X120337627Y-104320625D01*
X121151720Y-104320625D01*
X121277634Y-104610597D01*
X121609846Y-104776453D01*
X121968032Y-104874310D01*
X122338426Y-104900409D01*
X122706795Y-104853745D01*
X123058982Y-104736114D01*
X123293806Y-104610597D01*
X123419720Y-104320625D01*
X123407020Y-104307925D01*
X129482920Y-104307925D01*
X129608834Y-104597897D01*
X129941046Y-104763753D01*
X130299232Y-104861610D01*
X130669626Y-104887709D01*
X131037995Y-104841045D01*
X131390182Y-104723414D01*
X131625006Y-104597897D01*
X131750920Y-104307925D01*
X130616920Y-103173925D01*
X129482920Y-104307925D01*
X123407020Y-104307925D01*
X122285720Y-103186625D01*
X121151720Y-104320625D01*
X120337627Y-104320625D01*
X119999020Y-103982019D01*
X119999020Y-103919881D01*
X119959246Y-103719922D01*
X119881225Y-103531564D01*
X119767957Y-103362046D01*
X119623794Y-103217883D01*
X119454276Y-103104615D01*
X119265918Y-103026594D01*
X119065959Y-102986820D01*
X118862081Y-102986820D01*
X118662122Y-103026594D01*
X118473764Y-103104615D01*
X118304246Y-103217883D01*
X118160083Y-103362046D01*
X118046815Y-103531564D01*
X117968794Y-103719922D01*
X117929020Y-103919881D01*
X110272601Y-103919881D01*
X110433453Y-103597694D01*
X110531310Y-103239508D01*
X110557409Y-102869114D01*
X110510745Y-102500745D01*
X110393114Y-102148558D01*
X110367095Y-102099880D01*
X120632542Y-102098286D01*
X120516287Y-102331146D01*
X120418430Y-102689332D01*
X120392331Y-103059726D01*
X120438995Y-103428095D01*
X120556626Y-103780282D01*
X120682143Y-104015106D01*
X120972115Y-104141020D01*
X122106115Y-103007020D01*
X122091973Y-102992878D01*
X122271578Y-102813273D01*
X122285720Y-102827415D01*
X122299863Y-102813273D01*
X122479468Y-102992878D01*
X122465325Y-103007020D01*
X123599325Y-104141020D01*
X123889297Y-104015106D01*
X124055153Y-103682894D01*
X124153010Y-103324708D01*
X124179109Y-102954314D01*
X124132445Y-102585945D01*
X124014814Y-102233758D01*
X123942127Y-102097772D01*
X128958047Y-102096993D01*
X128847487Y-102318446D01*
X128749630Y-102676632D01*
X128723531Y-103047026D01*
X128770195Y-103415395D01*
X128887826Y-103767582D01*
X129013343Y-104002406D01*
X129303315Y-104128320D01*
X130437315Y-102994320D01*
X130423173Y-102980178D01*
X130602778Y-102800573D01*
X130616920Y-102814715D01*
X130631063Y-102800573D01*
X130810668Y-102980178D01*
X130796525Y-102994320D01*
X131930525Y-104128320D01*
X132220497Y-104002406D01*
X132386353Y-103670194D01*
X132484210Y-103312008D01*
X132510309Y-102941614D01*
X132463645Y-102573245D01*
X132346014Y-102221058D01*
X132279424Y-102096477D01*
X142296619Y-102094922D01*
X142303801Y-123761889D01*
%TA.AperFunction,Conductor*%
D14*
G36*
X142303801Y-123761889D02*
G01*
X105322538Y-123765717D01*
X105386353Y-123637894D01*
X105484210Y-123279708D01*
X105510309Y-122909314D01*
X105463645Y-122540945D01*
X105346014Y-122188758D01*
X105220497Y-121953934D01*
X104930525Y-121828020D01*
X103796525Y-122962020D01*
X103810668Y-122976163D01*
X103631063Y-123155768D01*
X103616920Y-123141625D01*
X103602778Y-123155768D01*
X103423173Y-122976163D01*
X103437315Y-122962020D01*
X102303315Y-121828020D01*
X102013343Y-121953934D01*
X101847487Y-122286146D01*
X101749630Y-122644332D01*
X101723531Y-123014726D01*
X101770195Y-123383095D01*
X101887826Y-123735282D01*
X101904283Y-123766071D01*
X97073433Y-123766571D01*
X97118653Y-123675994D01*
X97216510Y-123317808D01*
X97242609Y-122947414D01*
X97195945Y-122579045D01*
X97078314Y-122226858D01*
X96952797Y-121992034D01*
X96662825Y-121866120D01*
X95528825Y-123000120D01*
X95542968Y-123014263D01*
X95363363Y-123193868D01*
X95349220Y-123179725D01*
X95335078Y-123193868D01*
X95155473Y-123014263D01*
X95169615Y-123000120D01*
X95155473Y-122985978D01*
X95335078Y-122806373D01*
X95349220Y-122820515D01*
X96483220Y-121686515D01*
X96466676Y-121648415D01*
X102482920Y-121648415D01*
X103616920Y-122782415D01*
X104750920Y-121648415D01*
X104625006Y-121358443D01*
X104292794Y-121192587D01*
X103934608Y-121094730D01*
X103564214Y-121068631D01*
X103195845Y-121115295D01*
X102843658Y-121232926D01*
X102608834Y-121358443D01*
X102482920Y-121648415D01*
X96466676Y-121648415D01*
X96357306Y-121396543D01*
X96025094Y-121230687D01*
X95666908Y-121132830D01*
X95296514Y-121106731D01*
X94928145Y-121153395D01*
X94575958Y-121271026D01*
X94545099Y-121287521D01*
X94544221Y-118636164D01*
X97579020Y-118636164D01*
X97579020Y-119007476D01*
X97651459Y-119371654D01*
X97793554Y-119714702D01*
X97999845Y-120023438D01*
X98262402Y-120285995D01*
X98571138Y-120492286D01*
X98914186Y-120634381D01*
X99278364Y-120706820D01*
X99649676Y-120706820D01*
X100013854Y-120634381D01*
X100356902Y-120492286D01*
X100665638Y-120285995D01*
X100928195Y-120023438D01*
X101120145Y-119736164D01*
X125479020Y-119736164D01*
X125479020Y-120107476D01*
X125551459Y-120471654D01*
X125693554Y-120814702D01*
X125899845Y-121123438D01*
X126162402Y-121385995D01*
X126471138Y-121592286D01*
X126814186Y-121734381D01*
X127178364Y-121806820D01*
X127549676Y-121806820D01*
X127913854Y-121734381D01*
X128256902Y-121592286D01*
X128565638Y-121385995D01*
X128828195Y-121123438D01*
X129034486Y-120814702D01*
X129176581Y-120471654D01*
X129249020Y-120107476D01*
X129249020Y-119736164D01*
X129176581Y-119371986D01*
X129034486Y-119028938D01*
X128828195Y-118720202D01*
X128565638Y-118457645D01*
X128256902Y-118251354D01*
X127913854Y-118109259D01*
X127549676Y-118036820D01*
X127178364Y-118036820D01*
X126814186Y-118109259D01*
X126471138Y-118251354D01*
X126162402Y-118457645D01*
X125899845Y-118720202D01*
X125693554Y-119028938D01*
X125551459Y-119371986D01*
X125479020Y-119736164D01*
X101120145Y-119736164D01*
X101134486Y-119714702D01*
X101276581Y-119371654D01*
X101349020Y-119007476D01*
X101349020Y-118636164D01*
X101276581Y-118271986D01*
X101134486Y-117928938D01*
X100928195Y-117620202D01*
X100665638Y-117357645D01*
X100356902Y-117151354D01*
X100013854Y-117009259D01*
X99649676Y-116936820D01*
X99278364Y-116936820D01*
X98914186Y-117009259D01*
X98571138Y-117151354D01*
X98262402Y-117357645D01*
X97999845Y-117620202D01*
X97793554Y-117928938D01*
X97651459Y-118271986D01*
X97579020Y-118636164D01*
X94544221Y-118636164D01*
X94543472Y-116379854D01*
X94660646Y-116438353D01*
X95018832Y-116536210D01*
X95389226Y-116562309D01*
X95757595Y-116515645D01*
X96109782Y-116398014D01*
X96344606Y-116272497D01*
X96470520Y-115982525D01*
X96457820Y-115969825D01*
X102482920Y-115969825D01*
X102608834Y-116259797D01*
X102941046Y-116425653D01*
X103299232Y-116523510D01*
X103669626Y-116549609D01*
X104037995Y-116502945D01*
X104390182Y-116385314D01*
X104625006Y-116259797D01*
X104750920Y-115969825D01*
X103616920Y-114835825D01*
X102482920Y-115969825D01*
X96457820Y-115969825D01*
X95336520Y-114848525D01*
X95322378Y-114862668D01*
X95142773Y-114683063D01*
X95156915Y-114668920D01*
X95516125Y-114668920D01*
X96650125Y-115802920D01*
X96940097Y-115677006D01*
X97105953Y-115344794D01*
X97203810Y-114986608D01*
X97229909Y-114616214D01*
X97183245Y-114247845D01*
X97065614Y-113895658D01*
X96980363Y-113736164D01*
X98379020Y-113736164D01*
X98379020Y-114107476D01*
X98451459Y-114471654D01*
X98593554Y-114814702D01*
X98799845Y-115123438D01*
X99062402Y-115385995D01*
X99371138Y-115592286D01*
X99714186Y-115734381D01*
X100078364Y-115806820D01*
X100449676Y-115806820D01*
X100813854Y-115734381D01*
X101156902Y-115592286D01*
X101465638Y-115385995D01*
X101728195Y-115123438D01*
X101768415Y-115063244D01*
X101770195Y-115077295D01*
X101887826Y-115429482D01*
X102013343Y-115664306D01*
X102303315Y-115790220D01*
X103437315Y-114656220D01*
X103796525Y-114656220D01*
X104930525Y-115790220D01*
X105220497Y-115664306D01*
X105386353Y-115332094D01*
X105484210Y-114973908D01*
X105510309Y-114603514D01*
X105463645Y-114235145D01*
X105346014Y-113882958D01*
X105267551Y-113736164D01*
X106779020Y-113736164D01*
X106779020Y-114107476D01*
X106851459Y-114471654D01*
X106993554Y-114814702D01*
X107199845Y-115123438D01*
X107462402Y-115385995D01*
X107771138Y-115592286D01*
X108114186Y-115734381D01*
X108478364Y-115806820D01*
X108849676Y-115806820D01*
X109213854Y-115734381D01*
X109556902Y-115592286D01*
X109865638Y-115385995D01*
X110128195Y-115123438D01*
X110334486Y-114814702D01*
X110476581Y-114471654D01*
X110518098Y-114262929D01*
X114720142Y-114262929D01*
X114720142Y-114980711D01*
X114860174Y-115684700D01*
X115134857Y-116347843D01*
X115533635Y-116944657D01*
X116041183Y-117452205D01*
X116637997Y-117850983D01*
X117301140Y-118125666D01*
X118005129Y-118265698D01*
X118722911Y-118265698D01*
X119426900Y-118125666D01*
X120090043Y-117850983D01*
X120686857Y-117452205D01*
X121194405Y-116944657D01*
X121593183Y-116347843D01*
X121867866Y-115684700D01*
X122007898Y-114980711D01*
X122007898Y-114262929D01*
X121867866Y-113558940D01*
X121655488Y-113046213D01*
X122006132Y-113142010D01*
X122376526Y-113168109D01*
X122744895Y-113121445D01*
X123097082Y-113003814D01*
X123331906Y-112878297D01*
X123457820Y-112588325D01*
X122323820Y-111454325D01*
X122309678Y-111468468D01*
X122130073Y-111288863D01*
X122144215Y-111274720D01*
X122503425Y-111274720D01*
X123637425Y-112408720D01*
X123927397Y-112282806D01*
X124093253Y-111950594D01*
X124191110Y-111592408D01*
X124217209Y-111222014D01*
X124170545Y-110853645D01*
X124052914Y-110501458D01*
X123927397Y-110266634D01*
X123637425Y-110140720D01*
X122503425Y-111274720D01*
X122144215Y-111274720D01*
X121010215Y-110140720D01*
X120720243Y-110266634D01*
X120554387Y-110598846D01*
X120456530Y-110957032D01*
X120430431Y-111327426D01*
X120470934Y-111647160D01*
X120090043Y-111392657D01*
X119426900Y-111117974D01*
X118722911Y-110977942D01*
X118005129Y-110977942D01*
X117301140Y-111117974D01*
X116637997Y-111392657D01*
X116041183Y-111791435D01*
X115533635Y-112298983D01*
X115134857Y-112895797D01*
X114860174Y-113558940D01*
X114720142Y-114262929D01*
X110518098Y-114262929D01*
X110549020Y-114107476D01*
X110549020Y-113736164D01*
X110476581Y-113371986D01*
X110334486Y-113028938D01*
X110128195Y-112720202D01*
X109865638Y-112457645D01*
X109556902Y-112251354D01*
X109213854Y-112109259D01*
X108849676Y-112036820D01*
X108478364Y-112036820D01*
X108114186Y-112109259D01*
X107771138Y-112251354D01*
X107462402Y-112457645D01*
X107199845Y-112720202D01*
X106993554Y-113028938D01*
X106851459Y-113371986D01*
X106779020Y-113736164D01*
X105267551Y-113736164D01*
X105220497Y-113648134D01*
X104930525Y-113522220D01*
X103796525Y-114656220D01*
X103437315Y-114656220D01*
X102303315Y-113522220D01*
X102122115Y-113600902D01*
X102076581Y-113371986D01*
X102064416Y-113342615D01*
X102482920Y-113342615D01*
X103616920Y-114476615D01*
X104750920Y-113342615D01*
X104625006Y-113052643D01*
X104292794Y-112886787D01*
X103934608Y-112788930D01*
X103564214Y-112762831D01*
X103195845Y-112809495D01*
X102843658Y-112927126D01*
X102608834Y-113052643D01*
X102482920Y-113342615D01*
X102064416Y-113342615D01*
X101934486Y-113028938D01*
X101728195Y-112720202D01*
X101465638Y-112457645D01*
X101156902Y-112251354D01*
X100813854Y-112109259D01*
X100449676Y-112036820D01*
X100078364Y-112036820D01*
X99714186Y-112109259D01*
X99371138Y-112251354D01*
X99062402Y-112457645D01*
X98799845Y-112720202D01*
X98593554Y-113028938D01*
X98451459Y-113371986D01*
X98379020Y-113736164D01*
X96980363Y-113736164D01*
X96940097Y-113660834D01*
X96650125Y-113534920D01*
X95516125Y-114668920D01*
X95156915Y-114668920D01*
X95142773Y-114654778D01*
X95322378Y-114475173D01*
X95336520Y-114489315D01*
X96470520Y-113355315D01*
X96344606Y-113065343D01*
X96012394Y-112899487D01*
X95654208Y-112801630D01*
X95633207Y-112800150D01*
X95963854Y-112734381D01*
X96306902Y-112592286D01*
X96615638Y-112385995D01*
X96878195Y-112123438D01*
X97084486Y-111814702D01*
X97226581Y-111471654D01*
X97299020Y-111107476D01*
X97299020Y-110736164D01*
X97226581Y-110371986D01*
X97084486Y-110028938D01*
X97039169Y-109961115D01*
X121189820Y-109961115D01*
X122323820Y-111095115D01*
X123457820Y-109961115D01*
X123331906Y-109671143D01*
X122999694Y-109505287D01*
X122641508Y-109407430D01*
X122271114Y-109381331D01*
X121902745Y-109427995D01*
X121550558Y-109545626D01*
X121315734Y-109671143D01*
X121189820Y-109961115D01*
X97039169Y-109961115D01*
X96878195Y-109720202D01*
X96615638Y-109457645D01*
X96306902Y-109251354D01*
X95963854Y-109109259D01*
X95599676Y-109036820D01*
X95228364Y-109036820D01*
X94864186Y-109109259D01*
X94541106Y-109243083D01*
X94539447Y-104235425D01*
X99130020Y-104235425D01*
X99255934Y-104525397D01*
X99588146Y-104691253D01*
X99946332Y-104789110D01*
X100316726Y-104815209D01*
X100685095Y-104768545D01*
X101037282Y-104650914D01*
X101272106Y-104525397D01*
X101398020Y-104235425D01*
X107530020Y-104235425D01*
X107655934Y-104525397D01*
X107988146Y-104691253D01*
X108346332Y-104789110D01*
X108716726Y-104815209D01*
X109085095Y-104768545D01*
X109437282Y-104650914D01*
X109672106Y-104525397D01*
X109798020Y-104235425D01*
X108664020Y-103101425D01*
X107530020Y-104235425D01*
X101398020Y-104235425D01*
X100264020Y-103101425D01*
X99130020Y-104235425D01*
X94539447Y-104235425D01*
X94538739Y-102102337D01*
X98566595Y-102101712D01*
X98494587Y-102245946D01*
X98396730Y-102604132D01*
X98370631Y-102974526D01*
X98417295Y-103342895D01*
X98534926Y-103695082D01*
X98660443Y-103929906D01*
X98950415Y-104055820D01*
X100084415Y-102921820D01*
X100070273Y-102907678D01*
X100249878Y-102728073D01*
X100264020Y-102742215D01*
X100278163Y-102728073D01*
X100457768Y-102907678D01*
X100443625Y-102921820D01*
X101577625Y-104055820D01*
X101867597Y-103929906D01*
X102033453Y-103597694D01*
X102131310Y-103239508D01*
X102157409Y-102869114D01*
X102110745Y-102500745D01*
X101993114Y-102148558D01*
X101967792Y-102101184D01*
X106967247Y-102100408D01*
X106894587Y-102245946D01*
X106796730Y-102604132D01*
X106770631Y-102974526D01*
X106817295Y-103342895D01*
X106934926Y-103695082D01*
X107060443Y-103929906D01*
X107350415Y-104055820D01*
X108484415Y-102921820D01*
X108470273Y-102907678D01*
X108649878Y-102728073D01*
X108664020Y-102742215D01*
X108678163Y-102728073D01*
X108857768Y-102907678D01*
X108843625Y-102921820D01*
X109977625Y-104055820D01*
X110267597Y-103929906D01*
X110272601Y-103919881D01*
X117929020Y-103919881D01*
X117929020Y-104123759D01*
X117968794Y-104323718D01*
X118046815Y-104512076D01*
X118160083Y-104681594D01*
X118304246Y-104825757D01*
X118473764Y-104939025D01*
X118662122Y-105017046D01*
X118862081Y-105056820D01*
X118924219Y-105056820D01*
X127504020Y-113636622D01*
X127504021Y-115184488D01*
X127500344Y-115221820D01*
X127504021Y-115259153D01*
X127515018Y-115370806D01*
X127528200Y-115414262D01*
X127558474Y-115514066D01*
X127629046Y-115646096D01*
X127700221Y-115732822D01*
X127724020Y-115761821D01*
X127753018Y-115785619D01*
X128900220Y-116932822D01*
X128924019Y-116961821D01*
X129039744Y-117056794D01*
X129171773Y-117127366D01*
X129315034Y-117170823D01*
X129426687Y-117181820D01*
X129426696Y-117181820D01*
X129464019Y-117185496D01*
X129501342Y-117181820D01*
X134549219Y-117181820D01*
X136606501Y-119239103D01*
X136551459Y-119371986D01*
X136479020Y-119736164D01*
X136479020Y-120107476D01*
X136551459Y-120471654D01*
X136693554Y-120814702D01*
X136899845Y-121123438D01*
X137162402Y-121385995D01*
X137471138Y-121592286D01*
X137814186Y-121734381D01*
X138178364Y-121806820D01*
X138549676Y-121806820D01*
X138913854Y-121734381D01*
X139256902Y-121592286D01*
X139565638Y-121385995D01*
X139828195Y-121123438D01*
X140034486Y-120814702D01*
X140176581Y-120471654D01*
X140249020Y-120107476D01*
X140249020Y-119736164D01*
X140176581Y-119371986D01*
X140034486Y-119028938D01*
X139828195Y-118720202D01*
X139565638Y-118457645D01*
X139256902Y-118251354D01*
X138913854Y-118109259D01*
X138549676Y-118036820D01*
X138178364Y-118036820D01*
X137814186Y-118109259D01*
X137681303Y-118164301D01*
X135427824Y-115910823D01*
X135404021Y-115881819D01*
X135288296Y-115786846D01*
X135156267Y-115716274D01*
X135013006Y-115672817D01*
X134901353Y-115661820D01*
X134901342Y-115661820D01*
X134864020Y-115658144D01*
X134826698Y-115661820D01*
X132653003Y-115661820D01*
X132684486Y-115614702D01*
X132826581Y-115271654D01*
X132899020Y-114907476D01*
X132899020Y-114536164D01*
X132826581Y-114171986D01*
X132684486Y-113828938D01*
X132478195Y-113520202D01*
X132215638Y-113257645D01*
X131906902Y-113051354D01*
X131572827Y-112912976D01*
X131637706Y-112878297D01*
X131763620Y-112588325D01*
X130629620Y-111454325D01*
X129495620Y-112588325D01*
X129621534Y-112878297D01*
X129953746Y-113044153D01*
X130080208Y-113078703D01*
X129812402Y-113257645D01*
X129549845Y-113520202D01*
X129343554Y-113828938D01*
X129201459Y-114171986D01*
X129129020Y-114536164D01*
X129129020Y-114907476D01*
X129154978Y-115037977D01*
X129024020Y-114907019D01*
X129024020Y-113359142D01*
X129027696Y-113321819D01*
X129024020Y-113284496D01*
X129024020Y-113284487D01*
X129013023Y-113172834D01*
X128969566Y-113029573D01*
X128921595Y-112939826D01*
X128898994Y-112897543D01*
X128827819Y-112810817D01*
X128804021Y-112781819D01*
X128775024Y-112758022D01*
X127344428Y-111327426D01*
X128736231Y-111327426D01*
X128782895Y-111695795D01*
X128900526Y-112047982D01*
X129026043Y-112282806D01*
X129316015Y-112408720D01*
X130450015Y-111274720D01*
X130809225Y-111274720D01*
X131943225Y-112408720D01*
X132233197Y-112282806D01*
X132399053Y-111950594D01*
X132496910Y-111592408D01*
X132523009Y-111222014D01*
X132476345Y-110853645D01*
X132358714Y-110501458D01*
X132233197Y-110266634D01*
X131943225Y-110140720D01*
X130809225Y-111274720D01*
X130450015Y-111274720D01*
X129316015Y-110140720D01*
X129026043Y-110266634D01*
X128860187Y-110598846D01*
X128762330Y-110957032D01*
X128736231Y-111327426D01*
X127344428Y-111327426D01*
X125978117Y-109961115D01*
X129495620Y-109961115D01*
X130629620Y-111095115D01*
X131763620Y-109961115D01*
X131637706Y-109671143D01*
X131305494Y-109505287D01*
X130947308Y-109407430D01*
X130576914Y-109381331D01*
X130208545Y-109427995D01*
X129856358Y-109545626D01*
X129621534Y-109671143D01*
X129495620Y-109961115D01*
X125978117Y-109961115D01*
X122953166Y-106936164D01*
X124579020Y-106936164D01*
X124579020Y-107307476D01*
X124651459Y-107671654D01*
X124793554Y-108014702D01*
X124999845Y-108323438D01*
X125262402Y-108585995D01*
X125571138Y-108792286D01*
X125914186Y-108934381D01*
X126278364Y-109006820D01*
X126649676Y-109006820D01*
X127013854Y-108934381D01*
X127356902Y-108792286D01*
X127665638Y-108585995D01*
X127928195Y-108323438D01*
X128134486Y-108014702D01*
X128276581Y-107671654D01*
X128349020Y-107307476D01*
X128349020Y-106936164D01*
X128276581Y-106571986D01*
X128134486Y-106228938D01*
X127928195Y-105920202D01*
X127665638Y-105657645D01*
X127356902Y-105451354D01*
X127013854Y-105309259D01*
X126649676Y-105236820D01*
X126278364Y-105236820D01*
X125914186Y-105309259D01*
X125571138Y-105451354D01*
X125262402Y-105657645D01*
X124999845Y-105920202D01*
X124793554Y-106228938D01*
X124651459Y-106571986D01*
X124579020Y-106936164D01*
X122953166Y-106936164D01*
X120337627Y-104320625D01*
X121151720Y-104320625D01*
X121277634Y-104610597D01*
X121609846Y-104776453D01*
X121968032Y-104874310D01*
X122338426Y-104900409D01*
X122706795Y-104853745D01*
X123058982Y-104736114D01*
X123293806Y-104610597D01*
X123419720Y-104320625D01*
X123407020Y-104307925D01*
X129482920Y-104307925D01*
X129608834Y-104597897D01*
X129941046Y-104763753D01*
X130299232Y-104861610D01*
X130669626Y-104887709D01*
X131037995Y-104841045D01*
X131390182Y-104723414D01*
X131625006Y-104597897D01*
X131750920Y-104307925D01*
X130616920Y-103173925D01*
X129482920Y-104307925D01*
X123407020Y-104307925D01*
X122285720Y-103186625D01*
X121151720Y-104320625D01*
X120337627Y-104320625D01*
X119999020Y-103982019D01*
X119999020Y-103919881D01*
X119959246Y-103719922D01*
X119881225Y-103531564D01*
X119767957Y-103362046D01*
X119623794Y-103217883D01*
X119454276Y-103104615D01*
X119265918Y-103026594D01*
X119065959Y-102986820D01*
X118862081Y-102986820D01*
X118662122Y-103026594D01*
X118473764Y-103104615D01*
X118304246Y-103217883D01*
X118160083Y-103362046D01*
X118046815Y-103531564D01*
X117968794Y-103719922D01*
X117929020Y-103919881D01*
X110272601Y-103919881D01*
X110433453Y-103597694D01*
X110531310Y-103239508D01*
X110557409Y-102869114D01*
X110510745Y-102500745D01*
X110393114Y-102148558D01*
X110367095Y-102099880D01*
X120632542Y-102098286D01*
X120516287Y-102331146D01*
X120418430Y-102689332D01*
X120392331Y-103059726D01*
X120438995Y-103428095D01*
X120556626Y-103780282D01*
X120682143Y-104015106D01*
X120972115Y-104141020D01*
X122106115Y-103007020D01*
X122091973Y-102992878D01*
X122271578Y-102813273D01*
X122285720Y-102827415D01*
X122299863Y-102813273D01*
X122479468Y-102992878D01*
X122465325Y-103007020D01*
X123599325Y-104141020D01*
X123889297Y-104015106D01*
X124055153Y-103682894D01*
X124153010Y-103324708D01*
X124179109Y-102954314D01*
X124132445Y-102585945D01*
X124014814Y-102233758D01*
X123942127Y-102097772D01*
X128958047Y-102096993D01*
X128847487Y-102318446D01*
X128749630Y-102676632D01*
X128723531Y-103047026D01*
X128770195Y-103415395D01*
X128887826Y-103767582D01*
X129013343Y-104002406D01*
X129303315Y-104128320D01*
X130437315Y-102994320D01*
X130423173Y-102980178D01*
X130602778Y-102800573D01*
X130616920Y-102814715D01*
X130631063Y-102800573D01*
X130810668Y-102980178D01*
X130796525Y-102994320D01*
X131930525Y-104128320D01*
X132220497Y-104002406D01*
X132386353Y-103670194D01*
X132484210Y-103312008D01*
X132510309Y-102941614D01*
X132463645Y-102573245D01*
X132346014Y-102221058D01*
X132279424Y-102096477D01*
X142296619Y-102094922D01*
X142303801Y-123761889D01*
G37*
%TD.AperFunction*%
%TD*%
M02*
