M48
; DRILL file {KiCad (5.1.9-13-g2d491f9cbd)-1} date 02/20/21 15:52:10
; FORMAT={3:3/ absolute / metric / suppress leading zeros}
; #@! TF.CreationDate,2021-02-20T15:52:10+01:00
; #@! TF.GenerationSoftware,Kicad,Pcbnew,(5.1.9-13-g2d491f9cbd)-1
FMAT,2
METRIC,TZ
T1C0.400
T2C1.300
T3C1.600
%
G90
G05
T1
X96264Y-103622
X96264Y-108622
X96264Y-118622
X98764Y-106122
X98764Y-111122
X98764Y-123622
X101264Y-108622
X103764Y-103622
X103764Y-111122
X103764Y-118622
X106264Y-108622
X106264Y-118622
X106264Y-123622
X108764Y-106122
X108764Y-111122
X111264Y-108622
X111264Y-118622
X111264Y-123622
X113764Y-106122
X113764Y-111122
X113764Y-118622
X113764Y-123622
X118764Y-123622
X118964Y-104022
X121264Y-108622
X121264Y-118622
X121264Y-121122
X123764Y-106122
X123764Y-118622
X123764Y-123622
X126264Y-103622
X126264Y-116122
X128064Y-111122
X128764Y-106122
X128764Y-123622
X129864Y-117622
X131264Y-108622
X131264Y-121122
X133764Y-108622
X133764Y-113622
X133764Y-118622
X133764Y-123622
X136264Y-121122
X137664Y-110722
X138364Y-105122
X138764Y-113622
X138764Y-123622
X141264Y-113622
X141264Y-121122
T2
X95414Y-110922
X99464Y-118822
X100264Y-102922
X100264Y-113922
X108664Y-102922
X108664Y-113922
X126464Y-107122
X127364Y-119922
X131014Y-114722
X138364Y-119922
T3
X95337Y-114669
X95349Y-123000
X103617Y-114656
X103617Y-122962
X122286Y-103007
X122324Y-111275
X130617Y-102994
X130630Y-111275
T0
M30
